font.ufo
<glyph name="gampersand" format="2">
	<unicode hex="0026"/>
	<advance width="598"/>
	<outline>
		<contour>
			<point x="52" y="-132" type="curve"/>
			<point x="82" y="-128" type="line"/>
			<point x="98" y="144"/>
			<point x="248" y="256"/>
			<point x="380" y="256" type="curve" smooth="yes"/>
			<point x="468" y="256"/>
			<point x="514" y="210"/>
			<point x="514" y="140" type="curve" smooth="yes"/>
			<point x="514" y="69"/>
			<point x="444" y="20"/>
			<point x="364" y="20" type="curve" smooth="yes"/>
			<point x="286" y="20"/>
			<point x="148" y="64"/>
			<point x="148" y="242" type="curve" smooth="yes"/>
			<point x="148" y="387"/>
			<point x="266" y="486"/>
			<point x="446" y="486" type="curve" smooth="yes"/>
			<point x="460" y="486" type="line"/>
			<point x="466" y="510" type="line"/>
			<point x="374" y="566"/>
			<point x="318" y="612"/>
			<point x="286" y="676" type="curve"/>
			<point x="252" y="672" type="line"/>
			<point x="291" y="596"/>
			<point x="360" y="548"/>
			<point x="442" y="496" type="curve"/>
			<point x="452" y="516" type="line"/>
			<point x="252" y="516"/>
			<point x="122" y="405"/>
			<point x="122" y="242" type="curve" smooth="yes"/>
			<point x="122" y="36"/>
			<point x="274" y="-12"/>
			<point x="362" y="-12" type="curve" smooth="yes"/>
			<point x="460" y="-12"/>
			<point x="540" y="48"/>
			<point x="540" y="144" type="curve" smooth="yes"/>
			<point x="540" y="240"/>
			<point x="478" y="286"/>
			<point x="382" y="286" type="curve" smooth="yes"/>
			<point x="240" y="286"/>
			<point x="70" y="160"/>
		</contour>
	</outline>
</glyph>
<glyph name="two.S" format="2">
	<unicode hex="0032"/>
	<advance width="472"/>
	<outline>
		<contour>
			<point x="47" y="0" type="line"/>
			<point x="422" y="0" type="line"/>
			<point x="422" y="28" type="line"/>
			<point x="201" y="28" type="line" smooth="yes"/>
			<point x="165" y="28"/>
			<point x="129" y="26"/>
			<point x="93" y="24" type="curve"/>
			<point x="229" y="146"/>
			<point x="384" y="282"/>
			<point x="384" y="404" type="curve" smooth="yes"/>
			<point x="384" y="500"/>
			<point x="323" y="558"/>
			<point x="224" y="558" type="curve" smooth="yes"/>
			<point x="152" y="558"/>
			<point x="100" y="538"/>
			<point x="46" y="494" type="curve"/>
			<point x="64" y="470" type="line"/>
			<point x="118" y="514"/>
			<point x="166" y="528"/>
			<point x="222" y="528" type="curve" smooth="yes"/>
			<point x="312" y="528"/>
			<point x="354" y="478"/>
			<point x="354" y="404" type="curve" smooth="yes"/>
			<point x="354" y="294"/>
			<point x="211" y="162"/>
			<point x="47" y="20" type="curve"/>
		</contour>
	</outline>
</glyph>
<glyph name="three.S" format="2">
	<unicode hex="0033"/>
	<advance width="472"/>
	<outline>
		<contour>
			<point x="222" y="-52" type="curve" smooth="yes"/>
			<point x="336" y="-52"/>
			<point x="414" y="10"/>
			<point x="414" y="120" type="curve" smooth="yes"/>
			<point x="414" y="214"/>
			<point x="348" y="252"/>
			<point x="268" y="266" type="curve"/>
			<point x="268" y="270" type="line"/>
			<point x="340" y="292"/>
			<point x="390" y="338"/>
			<point x="390" y="422" type="curve" smooth="yes"/>
			<point x="390" y="514"/>
			<point x="317" y="558"/>
			<point x="224" y="558" type="curve" smooth="yes"/>
			<point x="156" y="558"/>
			<point x="114" y="542"/>
			<point x="60" y="508" type="curve"/>
			<point x="72" y="484" type="line"/>
			<point x="132" y="520"/>
			<point x="168" y="530"/>
			<point x="222" y="530" type="curve" smooth="yes"/>
			<point x="305" y="530"/>
			<point x="360" y="491"/>
			<point x="360" y="420" type="curve" smooth="yes"/>
			<point x="360" y="343"/>
			<point x="310" y="278"/>
			<point x="158" y="278" type="curve"/>
			<point x="158" y="252" type="line"/>
			<point x="320" y="252"/>
			<point x="384" y="203"/>
			<point x="384" y="118" type="curve" smooth="yes"/>
			<point x="384" y="29"/>
			<point x="322" y="-24"/>
			<point x="222" y="-24" type="curve" smooth="yes"/>
			<point x="158" y="-24"/>
			<point x="118" y="-18"/>
			<point x="52" y="22" type="curve"/>
			<point x="40" y="-2" type="line"/>
			<point x="100" y="-38"/>
			<point x="146" y="-52"/>
		</contour>
	</outline>
</glyph>
<glyph name="four.S" format="2">
	<unicode hex="0034"/>
	<advance width="472"/>
	<outline>
		<contour>
			<point x="314" y="-52" type="line"/>
			<point x="342" y="-52" type="line"/>
			<point x="342" y="552" type="line"/>
			<point x="322" y="552" type="line"/>
			<point x="20" y="138" type="line"/>
			<point x="20" y="122" type="line"/>
			<point x="440" y="122" type="line"/>
			<point x="440" y="150" type="line"/>
			<point x="60" y="150" type="line"/>
			<point x="260" y="426" type="line"/>
			<point x="280" y="454"/>
			<point x="298" y="480"/>
			<point x="314" y="504" type="curve"/>
			<point x="318" y="504" type="line"/>
			<point x="316" y="476"/>
			<point x="314" y="426"/>
			<point x="314" y="398" type="curve" smooth="yes"/>
		</contour>
	</outline>
</glyph>
<glyph name="five.S" format="2">
	<unicode hex="0035"/>
	<advance width="472"/>
	<outline>
		<contour>
			<point x="232" y="-52" type="curve" smooth="yes"/>
			<point x="330" y="-52"/>
			<point x="416" y="14"/>
			<point x="416" y="140" type="curve" smooth="yes"/>
			<point x="416" y="272"/>
			<point x="337" y="326"/>
			<point x="230" y="326" type="curve" smooth="yes"/>
			<point x="189" y="326"/>
			<point x="154" y="315"/>
			<point x="118" y="292" type="curve"/>
			<point x="140" y="518" type="line"/>
			<point x="388" y="518" type="line"/>
			<point x="388" y="546" type="line"/>
			<point x="112" y="546" type="line"/>
			<point x="88" y="272" type="line"/>
			<point x="112" y="256" type="line"/>
			<point x="146" y="283"/>
			<point x="183" y="298"/>
			<point x="228" y="298" type="curve" smooth="yes"/>
			<point x="329" y="298"/>
			<point x="386" y="242"/>
			<point x="386" y="138" type="curve" smooth="yes"/>
			<point x="386" y="33"/>
			<point x="313" y="-24"/>
			<point x="232" y="-24" type="curve" smooth="yes"/>
			<point x="167" y="-24"/>
			<point x="126" y="-19"/>
			<point x="60" y="22" type="curve"/>
			<point x="48" y="-2" type="line"/>
			<point x="109" y="-39"/>
			<point x="155" y="-52"/>
		</contour>
	</outline>
</glyph>
<glyph name="eight.S" format="2">
	<unicode hex="0038"/>
	<advance width="472"/>
	<outline>
		<contour>
			<point x="240" y="-12" type="curve" smooth="yes"/>
			<point x="359" y="-12"/>
			<point x="428" y="54"/>
			<point x="428" y="136" type="curve" smooth="yes"/>
			<point x="428" y="214"/>
			<point x="382" y="251"/>
			<point x="316" y="280" type="curve"/>
			<point x="316" y="284" type="line"/>
			<point x="351" y="309"/>
			<point x="414" y="368"/>
			<point x="414" y="450" type="curve" smooth="yes"/>
			<point x="414" y="540"/>
			<point x="346" y="598"/>
			<point x="240" y="598" type="curve" smooth="yes"/>
			<point x="144" y="598"/>
			<point x="74" y="546"/>
			<point x="74" y="458" type="curve" smooth="yes"/>
			<point x="74" y="388"/>
			<point x="116" y="350"/>
			<point x="172" y="316" type="curve"/>
			<point x="172" y="312" type="line"/>
			<point x="117" y="287"/>
			<point x="42" y="240"/>
			<point x="42" y="144" type="curve" smooth="yes"/>
			<point x="42" y="42"/>
			<point x="123" y="-12"/>
		</contour>
		<contour>
			<point x="288" y="294" type="curve"/>
			<point x="191" y="331"/>
			<point x="106" y="366"/>
			<point x="106" y="458" type="curve" smooth="yes"/>
			<point x="106" y="528"/>
			<point x="165" y="570"/>
			<point x="240" y="570" type="curve" smooth="yes"/>
			<point x="327" y="570"/>
			<point x="382" y="520"/>
			<point x="382" y="450" type="curve" smooth="yes"/>
			<point x="382" y="382"/>
			<point x="347" y="334"/>
		</contour>
		<contour>
			<point x="240" y="16" type="curve" smooth="yes"/>
			<point x="140" y="16"/>
			<point x="74" y="63"/>
			<point x="74" y="144" type="curve" smooth="yes"/>
			<point x="74" y="226"/>
			<point x="129" y="269"/>
			<point x="194" y="298" type="curve"/>
			<point x="292" y="256"/>
			<point x="396" y="238"/>
			<point x="396" y="136" type="curve" smooth="yes"/>
			<point x="396" y="71"/>
			<point x="342" y="16"/>
		</contour>
	</outline>
</glyph>
<glyph name="cent.S" format="2">
	<unicode hex="00A2"/>
	<advance width="472"/>
	<outline>
		<contour>
			<point x="294" y="42" type="curve" smooth="yes"/>
			<point x="352" y="42"/>
			<point x="400" y="68"/>
			<point x="432" y="98" type="curve"/>
			<point x="412" y="120" type="line"/>
			<point x="384" y="94"/>
			<point x="342" y="72"/>
			<point x="294" y="72" type="curve" smooth="yes"/>
			<point x="182" y="72"/>
			<point x="96" y="132"/>
			<point x="96" y="280" type="curve" smooth="yes"/>
			<point x="96" y="418"/>
			<point x="188" y="472"/>
			<point x="282" y="472" type="curve" smooth="yes"/>
			<point x="330" y="472"/>
			<point x="362" y="458"/>
			<point x="398" y="428" type="curve"/>
			<point x="418" y="450" type="line"/>
			<point x="378" y="484"/>
			<point x="340" y="502"/>
			<point x="282" y="502" type="curve" smooth="yes"/>
			<point x="172" y="502"/>
			<point x="68" y="440"/>
			<point x="68" y="280" type="curve" smooth="yes"/>
			<point x="68" y="110"/>
			<point x="166" y="42"/>
		</contour>
		<contour>
			<point x="256" y="-68" type="line"/>
			<point x="284" y="-68" type="line"/>
			<point x="284" y="610" type="line"/>
			<point x="256" y="610" type="line"/>
		</contour>
	</outline>
</glyph>
<glyph name="sterling.S" format="2">
	<unicode hex="00A3"/>
	<advance width="472"/>
	<outline>
		<contour>
			<point x="58" y="0" type="line"/>
			<point x="418" y="0" type="line"/>
			<point x="418" y="26" type="line"/>
			<point x="120" y="26" type="line"/>
			<point x="120" y="30" type="line"/>
			<point x="165" y="73"/>
			<point x="192" y="120"/>
			<point x="192" y="198" type="curve" smooth="yes"/>
			<point x="192" y="278"/>
			<point x="144" y="334"/>
			<point x="144" y="406" type="curve" smooth="yes"/>
			<point x="144" y="492"/>
			<point x="206" y="528"/>
			<point x="272" y="528" type="curve" smooth="yes"/>
			<point x="320" y="528"/>
			<point x="352" y="514"/>
			<point x="388" y="484" type="curve"/>
			<point x="408" y="506" type="line"/>
			<point x="368" y="540"/>
			<point x="330" y="558"/>
			<point x="272" y="558" type="curve" smooth="yes"/>
			<point x="192" y="558"/>
			<point x="116" y="514"/>
			<point x="116" y="404" type="curve" smooth="yes"/>
			<point x="116" y="332"/>
			<point x="166" y="270"/>
			<point x="166" y="198" type="curve" smooth="yes"/>
			<point x="166" y="126"/>
			<point x="134" y="62"/>
			<point x="58" y="18" type="curve"/>
		</contour>
		<contour>
			<point x="54" y="258" type="line"/>
			<point x="346" y="258" type="line"/>
			<point x="346" y="286" type="line"/>
			<point x="120" y="286" type="line"/>
			<point x="54" y="284" type="line"/>
		</contour>
	</outline>
</glyph>
<glyph name="dotlessi" format="2">
	<unicode hex="0131"/>
	<advance width="222"/>
	<outline>
		<contour>
			<point x="96" y="0" type="line"/>
			<point x="126" y="0" type="line"/>
			<point x="126" y="478" type="line"/>
			<point x="96" y="478" type="line"/>
		</contour>
	</outline>
	<anchor name="aboveLC" x="112" y="500"/>
	<anchor name="belowLC" x="110" y="-20"/>
	<anchor name="ogonekLC" x="130" y="0"/>
	<anchor name="baseLC" x="111" y="0"/>
</glyph>
<glyph name="dezh" format="2">
	<unicode hex="02A4"/>
	<advance width="844"/>
	<outline>
		<contour>
			<point x="437" y="450" type="line"/>
			<point x="522" y="450" type="line"/>
			<point x="522" y="478" type="line"/>
			<point x="437" y="478" type="line"/>
		</contour>
		<component base="d"/>
		<component base="ezh" xOffset="448"/>
	</outline>
	<anchor name="aboveUC" x="420" y="730"/>
	<anchor name="belowLC" x="292" y="-20"/>
</glyph>
<glyph name="primemod" format="2">
	<unicode hex="02B9"/>
	<advance width="208"/>
	<outline>
		<contour>
			<point x="102" y="538" type="line"/>
			<point x="126" y="670" type="line"/>
			<point x="134" y="732" type="line"/>
			<point x="106" y="734" type="line"/>
			<point x="82" y="540" type="line"/>
		</contour>
	</outline>
</glyph>
<glyph name="heHatafSegol" format="2">
	<unicode hex="05B1"/>
	<outline>
		<contour>
			<point x="121" y="-270" type="curve" smooth="yes"/>
			<point x="140" y="-270"/>
			<point x="153" y="-256"/>
			<point x="153" y="-238" type="curve" smooth="yes"/>
			<point x="153" y="-220"/>
			<point x="140" y="-207"/>
			<point x="121" y="-207" type="curve" smooth="yes"/>
			<point x="103" y="-207"/>
			<point x="90" y="-220"/>
			<point x="90" y="-238" type="curve" smooth="yes"/>
			<point x="90" y="-256"/>
			<point x="103" y="-270"/>
		</contour>
		<contour>
			<point x="121" y="-148" type="curve" smooth="yes"/>
			<point x="140" y="-148"/>
			<point x="153" y="-135"/>
			<point x="153" y="-117" type="curve" smooth="yes"/>
			<point x="153" y="-99"/>
			<point x="140" y="-85"/>
			<point x="121" y="-85" type="curve" smooth="yes"/>
			<point x="103" y="-85"/>
			<point x="90" y="-99"/>
			<point x="90" y="-117" type="curve" smooth="yes"/>
			<point x="90" y="-135"/>
			<point x="103" y="-148"/>
		</contour>
		<contour>
			<point x="1" y="-148" type="curve" smooth="yes"/>
			<point x="20" y="-148"/>
			<point x="32" y="-135"/>
			<point x="32" y="-117" type="curve" smooth="yes"/>
			<point x="32" y="-99"/>
			<point x="20" y="-85"/>
			<point x="1" y="-85" type="curve" smooth="yes"/>
			<point x="-17" y="-85"/>
			<point x="-31" y="-99"/>
			<point x="-31" y="-117" type="curve" smooth="yes"/>
			<point x="-31" y="-135"/>
			<point x="-17" y="-148"/>
		</contour>
		<contour>
			<point x="-59" y="-270" type="curve" smooth="yes"/>
			<point x="-42" y="-270"/>
			<point x="-29" y="-256"/>
			<point x="-29" y="-238" type="curve" smooth="yes"/>
			<point x="-29" y="-220"/>
			<point x="-42" y="-207"/>
			<point x="-59" y="-207" type="curve" smooth="yes"/>
			<point x="-77" y="-207"/>
			<point x="-91" y="-220"/>
			<point x="-91" y="-238" type="curve" smooth="yes"/>
			<point x="-91" y="-256"/>
			<point x="-77" y="-270"/>
		</contour>
		<contour>
			<point x="-121" y="-148" type="curve" smooth="yes"/>
			<point x="-103" y="-148"/>
			<point x="-91" y="-135"/>
			<point x="-91" y="-117" type="curve" smooth="yes"/>
			<point x="-91" y="-99"/>
			<point x="-103" y="-85"/>
			<point x="-121" y="-85" type="curve" smooth="yes"/>
			<point x="-139" y="-85"/>
			<point x="-152" y="-99"/>
			<point x="-152" y="-117" type="curve" smooth="yes"/>
			<point x="-152" y="-135"/>
			<point x="-139" y="-148"/>
		</contour>
	</outline>
	<anchor name="_belowPrimaryHE" x="0" y="-30"/>
	<anchor name="_belowLeftHE" x="-135" y="-30"/>
	<anchor name="belowPrimaryHE" x="-220" y="-30"/>
	<anchor name="_belowSecondaryHE" x="70" y="-30"/>
</glyph>
<glyph name="heQamats" format="2">
	<unicode hex="05B8"/>
	<outline>
		<contour>
			<point x="-14" y="-242" type="line"/>
			<point x="14" y="-242" type="line"/>
			<point x="14" y="-136" type="line"/>
			<point x="86" y="-136" type="line"/>
			<point x="86" y="-108" type="line"/>
			<point x="-86" y="-108" type="line"/>
			<point x="-86" y="-136" type="line"/>
			<point x="-14" y="-136" type="line"/>
		</contour>
	</outline>
	<anchor name="belowPrimaryHE" x="-160" y="-30"/>
	<anchor name="_belowRightHE" x="95" y="-30"/>
	<anchor name="_belowPrimaryHE" x="0" y="-30"/>
	<anchor name="_belowLeftHE" x="-95" y="-30"/>
	<anchor name="_belowSecondaryHE" x="0" y="-30"/>
</glyph>
<glyph name="heMaqaf" format="2">
	<unicode hex="05BE"/>
	<advance width="336"/>
	<outline>
		<contour>
			<point x="40" y="516" type="line"/>
			<point x="296" y="516" type="line"/>
			<point x="296" y="546" type="line"/>
			<point x="40" y="546" type="line"/>
		</contour>
	</outline>
</glyph>
<glyph name="heRafe" format="2">
	<unicode hex="05BF"/>
	<outline>
		<contour>
			<point x="-101" y="645" type="line"/>
			<point x="101" y="645" type="line"/>
			<point x="101" y="684" type="line"/>
			<point x="-101" y="684" type="line"/>
		</contour>
	</outline>
	<anchor name="_aboveHE" x="0" y="590"/>
</glyph>
<glyph name="hePaseq" format="2">
	<unicode hex="05C0"/>
	<advance width="230"/>
	<outline>
		<contour>
			<point x="100" y="-106" type="line"/>
			<point x="130" y="-106" type="line"/>
			<point x="130" y="666" type="line"/>
			<point x="100" y="666" type="line"/>
		</contour>
	</outline>
</glyph>
<glyph name="heSofPasuq" format="2">
	<unicode hex="05C3"/>
	<advance width="242"/>
	<outline>
		<contour>
			<point x="121" y="420" type="curve" smooth="yes"/>
			<point x="146" y="420"/>
			<point x="162" y="441"/>
			<point x="162" y="465" type="curve" smooth="yes"/>
			<point x="162" y="491"/>
			<point x="146" y="510"/>
			<point x="122" y="510" type="curve" smooth="yes"/>
			<point x="98" y="510"/>
			<point x="81" y="491"/>
			<point x="81" y="465" type="curve" smooth="yes"/>
			<point x="80" y="441"/>
			<point x="97" y="420"/>
		</contour>
		<contour>
			<point x="121" y="-11" type="curve" smooth="yes"/>
			<point x="146" y="-11"/>
			<point x="162" y="9"/>
			<point x="162" y="33" type="curve" smooth="yes"/>
			<point x="162" y="60"/>
			<point x="146" y="79"/>
			<point x="122" y="79" type="curve" smooth="yes"/>
			<point x="98" y="79"/>
			<point x="81" y="60"/>
			<point x="81" y="33" type="curve" smooth="yes"/>
			<point x="80" y="9"/>
			<point x="97" y="-11"/>
		</contour>
	</outline>
</glyph>
<glyph name="heQamatsQatan" format="2">
	<unicode hex="05C7"/>
	<outline>
		<contour>
			<point x="-14" y="-312" type="line"/>
			<point x="14" y="-312" type="line"/>
			<point x="14" y="-136" type="line"/>
			<point x="96" y="-136" type="line"/>
			<point x="96" y="-108" type="line"/>
			<point x="-96" y="-108" type="line"/>
			<point x="-96" y="-136" type="line"/>
			<point x="-14" y="-136" type="line"/>
		</contour>
	</outline>
	<anchor name="_belowPrimaryHE" x="0" y="-30"/>
	<anchor name="_belowLeftHE" x="-95" y="-30"/>
	<anchor name="_belowRightHE" x="95" y="-30"/>
	<anchor name="belowPrimaryHE" x="-140" y="-30"/>
	<anchor name="_belowSecondaryHE" x="0" y="-30"/>
	<guideline y="46" identifier="0QQY0Nsl6b"/>
</glyph>
<glyph name="heBet" format="2">
	<unicode hex="05D1"/>
	<advance width="522"/>
	<outline>
		<contour>
			<point x="54" y="0" type="line"/>
			<point x="478" y="0" type="line"/>
			<point x="478" y="28" type="line"/>
			<point x="54" y="28" type="line"/>
		</contour>
		<contour>
			<point x="412" y="0" type="line"/>
			<point x="416" y="108"/>
			<point x="422" y="190"/>
			<point x="422" y="300" type="curve" smooth="yes"/>
			<point x="422" y="480"/>
			<point x="351" y="546"/>
			<point x="214" y="546" type="curve" smooth="yes"/>
			<point x="74" y="546" type="line"/>
			<point x="74" y="518" type="line"/>
			<point x="208" y="518" type="line" smooth="yes"/>
			<point x="331" y="518"/>
			<point x="392" y="466"/>
			<point x="392" y="296" type="curve" smooth="yes"/>
			<point x="392" y="197"/>
			<point x="389" y="126"/>
			<point x="384" y="30" type="curve"/>
		</contour>
	</outline>
	<anchor name="aboveHE" x="220" y="590"/>
	<anchor name="belowPrimaryHE" x="250" y="-30"/>
	<anchor name="centerHE" x="210" y="280"/>
	<anchor name="aboveLeftHE" x="30" y="590"/>
</glyph>
<glyph name="heDalet" format="2">
	<unicode hex="05D3"/>
	<advance width="512"/>
	<outline>
		<contour>
			<point x="4" y="516" type="line"/>
			<point x="456" y="516" type="line"/>
			<point x="456" y="546" type="line"/>
			<point x="4" y="546" type="line"/>
		</contour>
		<contour>
			<point x="324" y="0" type="line"/>
			<point x="352" y="0" type="line"/>
			<point x="352" y="516" type="line"/>
			<point x="330" y="516" type="line"/>
			<point x="324" y="490"/>
			<point x="324" y="462"/>
			<point x="324" y="426" type="curve" smooth="yes"/>
		</contour>
	</outline>
</glyph>
<glyph name="heHe" format="2">
	<unicode hex="05D4"/>
	<advance width="620"/>
	<outline>
		<contour>
			<point x="490" y="0" type="line"/>
			<point x="520" y="0" type="line"/>
			<point x="520" y="350" type="line" smooth="yes"/>
			<point x="520" y="494"/>
			<point x="452" y="546"/>
			<point x="344" y="546" type="curve" smooth="yes"/>
			<point x="94" y="546" type="line"/>
			<point x="94" y="518" type="line"/>
			<point x="336" y="518" type="line" smooth="yes"/>
			<point x="430" y="518"/>
			<point x="490" y="478"/>
			<point x="490" y="346" type="curve" smooth="yes"/>
		</contour>
		<contour>
			<point x="114" y="0" type="line"/>
			<point x="144" y="0" type="line"/>
			<point x="144" y="338" type="line"/>
			<point x="120" y="338" type="line"/>
			<point x="114" y="312"/>
			<point x="114" y="284"/>
			<point x="114" y="248" type="curve" smooth="yes"/>
		</contour>
	</outline>
	<anchor name="aboveHE" x="300" y="590"/>
	<anchor name="belowPrimaryHE" x="310" y="-30"/>
	<anchor name="centerHE" x="310" y="260"/>
	<anchor name="aboveLeftHE" x="20" y="590"/>
</glyph>
<glyph name="heVav" format="2">
	<unicode hex="05D5"/>
	<advance width="274"/>
	<outline>
		<contour>
			<point x="144" y="0" type="line"/>
			<point x="174" y="0" type="line"/>
			<point x="174" y="390" type="line" smooth="yes"/>
			<point x="174" y="514"/>
			<point x="130" y="546"/>
			<point x="38" y="546" type="curve" smooth="yes"/>
			<point x="4" y="546" type="line"/>
			<point x="4" y="518" type="line"/>
			<point x="30" y="518" type="line" smooth="yes"/>
			<point x="108" y="518"/>
			<point x="144" y="497"/>
			<point x="144" y="386" type="curve" smooth="yes"/>
		</contour>
	</outline>
	<anchor name="aboveHE" x="90" y="590"/>
	<anchor name="belowSecondaryHE" x="160" y="-30"/>
	<anchor name="centerHE" x="40" y="260"/>
	<anchor name="holamHE" x="0" y="590"/>
	<anchor name="aboveLeftHE" x="90" y="590"/>
</glyph>
<glyph name="heZayin" format="2">
	<unicode hex="05D6"/>
	<advance width="272"/>
	<outline>
		<contour>
			<point x="4" y="518" type="line"/>
			<point x="228" y="518" type="line"/>
			<point x="228" y="546" type="line"/>
			<point x="4" y="546" type="line"/>
		</contour>
		<contour>
			<point x="142" y="0" type="curve"/>
			<point x="172" y="0" type="line"/>
			<point x="148" y="184"/>
			<point x="128" y="364"/>
			<point x="128" y="426" type="curve" smooth="yes"/>
			<point x="128" y="457"/>
			<point x="128" y="487"/>
			<point x="134" y="518" type="curve"/>
			<point x="110" y="518" type="line"/>
			<point x="102" y="489"/>
			<point x="98" y="463"/>
			<point x="98" y="426" type="curve" smooth="yes"/>
			<point x="98" y="360"/>
			<point x="120" y="176"/>
		</contour>
	</outline>
	<anchor name="aboveHE" x="120" y="590"/>
	<anchor name="belowPrimaryHE" x="130" y="-30"/>
	<anchor name="centerHE" x="10" y="260"/>
	<anchor name="aboveLeftHE" x="0" y="590"/>
</glyph>
<glyph name="heHet" format="2">
	<unicode hex="05D7"/>
	<advance width="628"/>
	<outline>
		<contour>
			<point x="498" y="0" type="line"/>
			<point x="528" y="0" type="line"/>
			<point x="528" y="350" type="line" smooth="yes"/>
			<point x="528" y="494"/>
			<point x="460" y="546"/>
			<point x="352" y="546" type="curve" smooth="yes"/>
			<point x="34" y="546" type="line"/>
			<point x="34" y="518" type="line"/>
			<point x="344" y="518" type="line" smooth="yes"/>
			<point x="438" y="518"/>
			<point x="498" y="478"/>
			<point x="498" y="346" type="curve" smooth="yes"/>
		</contour>
		<contour>
			<point x="114" y="0" type="line"/>
			<point x="144" y="0" type="line"/>
			<point x="144" y="518" type="line"/>
			<point x="120" y="518" type="line"/>
			<point x="114" y="492"/>
			<point x="114" y="464"/>
			<point x="114" y="428" type="curve" smooth="yes"/>
		</contour>
	</outline>
	<anchor name="aboveHE" x="310" y="590"/>
	<anchor name="belowPrimaryHE" x="320" y="-30"/>
	<anchor name="centerHE" x="320" y="260"/>
	<anchor name="aboveLeftHE" x="20" y="590"/>
</glyph>
<glyph name="heTet" format="2">
	<unicode hex="05D8"/>
	<advance width="590"/>
	<outline>
		<contour>
			<point x="304" y="-12" type="curve" smooth="yes"/>
			<point x="427" y="-12"/>
			<point x="532" y="98"/>
			<point x="532" y="360" type="curve" smooth="yes"/>
			<point x="532" y="500"/>
			<point x="486" y="546"/>
			<point x="392" y="546" type="curve" smooth="yes"/>
			<point x="332" y="546" type="line"/>
			<point x="332" y="514" type="line"/>
			<point x="388" y="514" type="line" smooth="yes"/>
			<point x="468" y="514"/>
			<point x="504" y="480"/>
			<point x="504" y="360" type="curve" smooth="yes"/>
			<point x="504" y="117"/>
			<point x="403" y="20"/>
			<point x="304" y="20" type="curve" smooth="yes"/>
			<point x="201" y="20"/>
			<point x="134" y="119"/>
			<point x="134" y="276" type="curve" smooth="yes"/>
			<point x="134" y="326"/>
			<point x="138" y="380"/>
			<point x="138" y="430" type="curve" smooth="yes"/>
			<point x="138" y="522"/>
			<point x="107" y="546"/>
			<point x="42" y="546" type="curve" smooth="yes"/>
			<point x="24" y="546" type="line"/>
			<point x="24" y="516" type="line"/>
			<point x="36" y="516" type="line" smooth="yes"/>
			<point x="86" y="516"/>
			<point x="110" y="501"/>
			<point x="110" y="424" type="curve" smooth="yes"/>
			<point x="110" y="376"/>
			<point x="106" y="324"/>
			<point x="106" y="276" type="curve" smooth="yes"/>
			<point x="106" y="100"/>
			<point x="188" y="-12"/>
		</contour>
	</outline>
	<anchor name="aboveHE" x="315" y="590"/>
	<anchor name="belowPrimaryHE" x="325" y="-30"/>
	<anchor name="centerHE" x="315" y="300"/>
	<anchor name="aboveLeftHE" x="0" y="590"/>
</glyph>
<glyph name="heYod" format="2">
	<unicode hex="05D9"/>
	<advance width="232"/>
	<outline>
		<contour>
			<point x="90" y="242" type="line"/>
			<point x="136" y="310"/>
			<point x="174" y="390"/>
			<point x="174" y="448" type="curve" smooth="yes"/>
			<point x="174" y="516"/>
			<point x="150" y="546"/>
			<point x="76" y="546" type="curve" smooth="yes"/>
			<point x="4" y="546" type="line"/>
			<point x="4" y="518" type="line"/>
			<point x="58" y="518" type="line" smooth="yes"/>
			<point x="129" y="518"/>
			<point x="142" y="496"/>
			<point x="142" y="450" type="curve" smooth="yes"/>
			<point x="142" y="398"/>
			<point x="110" y="322"/>
			<point x="64" y="258" type="curve"/>
		</contour>
	</outline>
	<anchor name="aboveHE" x="80" y="590"/>
	<anchor name="belowPrimaryHE" x="120" y="-30"/>
	<anchor name="centerHE" x="40" y="410"/>
	<anchor name="aboveLeftHE" x="-10" y="590"/>
</glyph>
<glyph name="heKafFin" format="2">
	<unicode hex="05DA"/>
	<advance width="494"/>
	<outline>
		<contour>
			<point x="364" y="-200" type="line"/>
			<point x="392" y="-200" type="line"/>
			<point x="392" y="350" type="line" smooth="yes"/>
			<point x="392" y="494"/>
			<point x="323" y="546"/>
			<point x="216" y="546" type="curve" smooth="yes"/>
			<point x="4" y="546" type="line"/>
			<point x="4" y="516" type="line"/>
			<point x="210" y="516" type="line" smooth="yes"/>
			<point x="304" y="516"/>
			<point x="364" y="475"/>
			<point x="364" y="344" type="curve" smooth="yes"/>
		</contour>
	</outline>
</glyph>
<glyph name="heKaf" format="2">
	<unicode hex="05DB"/>
	<advance width="516"/>
	<outline>
		<contour>
			<point x="54" y="0" type="line"/>
			<point x="388" y="0" type="line"/>
			<point x="408" y="98"/>
			<point x="420" y="190"/>
			<point x="420" y="300" type="curve" smooth="yes"/>
			<point x="420" y="480"/>
			<point x="348" y="546"/>
			<point x="212" y="546" type="curve" smooth="yes"/>
			<point x="74" y="546" type="line"/>
			<point x="74" y="518" type="line"/>
			<point x="204" y="518" type="line" smooth="yes"/>
			<point x="328" y="518"/>
			<point x="390" y="466"/>
			<point x="390" y="296" type="curve" smooth="yes"/>
			<point x="390" y="196"/>
			<point x="382" y="116"/>
			<point x="364" y="28" type="curve"/>
			<point x="54" y="28" type="line"/>
		</contour>
	</outline>
	<anchor name="aboveHE" x="220" y="590"/>
	<anchor name="belowPrimaryHE" x="220" y="-30"/>
	<anchor name="centerHE" x="210" y="280"/>
	<anchor name="aboveLeftHE" x="30" y="590"/>
</glyph>
<glyph name="heMemFin" format="2">
	<unicode hex="05DD"/>
	<advance width="628"/>
	<outline>
		<contour>
			<point x="132" y="0" type="line"/>
			<point x="528" y="0" type="line"/>
			<point x="528" y="350" type="line" smooth="yes"/>
			<point x="528" y="494"/>
			<point x="459" y="546"/>
			<point x="352" y="546" type="curve" smooth="yes"/>
			<point x="34" y="546" type="line"/>
			<point x="34" y="518" type="line"/>
			<point x="344" y="518" type="line" smooth="yes"/>
			<point x="438" y="518"/>
			<point x="498" y="477"/>
			<point x="498" y="346" type="curve" smooth="yes"/>
			<point x="498" y="28" type="line"/>
			<point x="132" y="28" type="line"/>
		</contour>
		<contour>
			<point x="114" y="0" type="line"/>
			<point x="144" y="0" type="line"/>
			<point x="144" y="518" type="line"/>
			<point x="120" y="518" type="line"/>
			<point x="114" y="492"/>
			<point x="114" y="464"/>
			<point x="114" y="428" type="curve" smooth="yes"/>
		</contour>
	</outline>
	<anchor name="aboveHE" x="320" y="590"/>
	<anchor name="belowPrimaryHE" x="330" y="-30"/>
	<anchor name="centerHE" x="330" y="280"/>
	<anchor name="aboveLeftHE" x="0" y="590"/>
</glyph>
<glyph name="heMem" format="2">
	<unicode hex="05DE"/>
	<advance width="664"/>
	<outline>
		<contour>
			<point x="284" y="0" type="line"/>
			<point x="560" y="0" type="line"/>
			<point x="564" y="68"/>
			<point x="568" y="144"/>
			<point x="568" y="200" type="curve" smooth="yes"/>
			<point x="568" y="467"/>
			<point x="506" y="558"/>
			<point x="386" y="558" type="curve" smooth="yes"/>
			<point x="210" y="558"/>
			<point x="100" y="286"/>
			<point x="100" y="0" type="curve"/>
			<point x="128" y="0" type="line"/>
			<point x="128" y="276"/>
			<point x="234" y="526"/>
			<point x="384" y="526" type="curve" smooth="yes"/>
			<point x="484" y="526"/>
			<point x="536" y="447"/>
			<point x="536" y="200" type="curve" smooth="yes"/>
			<point x="536" y="143"/>
			<point x="534" y="87"/>
			<point x="530" y="28" type="curve"/>
			<point x="284" y="30" type="line"/>
		</contour>
		<contour>
			<point x="144" y="300" type="curve"/>
			<point x="169" y="300" type="line"/>
			<point x="178" y="348"/>
			<point x="194" y="430"/>
			<point x="194" y="452" type="curve" smooth="yes"/>
			<point x="194" y="516"/>
			<point x="170" y="546"/>
			<point x="96" y="546" type="curve" smooth="yes"/>
			<point x="44" y="546" type="line"/>
			<point x="44" y="516" type="line"/>
			<point x="82" y="516" type="line" smooth="yes"/>
			<point x="153" y="516"/>
			<point x="166" y="495"/>
			<point x="166" y="450" type="curve" smooth="yes"/>
			<point x="166" y="418"/>
			<point x="155" y="343"/>
		</contour>
	</outline>
	<anchor name="aboveHE" x="340" y="580"/>
	<anchor name="belowPrimaryHE" x="350" y="-30"/>
	<anchor name="centerHE" x="355" y="285"/>
	<anchor name="aboveLeftHE" x="-5" y="590"/>
</glyph>
<glyph name="heSamekh" format="2">
	<unicode hex="05E1"/>
	<advance width="574"/>
	<outline>
		<contour>
			<point x="294" y="-12" type="curve" smooth="yes"/>
			<point x="418" y="-12"/>
			<point x="516" y="127"/>
			<point x="516" y="390" type="curve" smooth="yes"/>
			<point x="516" y="507"/>
			<point x="480" y="546"/>
			<point x="406" y="546" type="curve" smooth="yes"/>
			<point x="4" y="546" type="line"/>
			<point x="4" y="516" type="line"/>
			<point x="402" y="516" type="line" smooth="yes"/>
			<point x="462" y="516"/>
			<point x="490" y="488"/>
			<point x="490" y="390" type="curve" smooth="yes"/>
			<point x="490" y="146"/>
			<point x="394" y="20"/>
			<point x="294" y="20" type="curve" smooth="yes"/>
			<point x="180" y="20"/>
			<point x="102" y="198"/>
			<point x="100" y="530" type="curve"/>
			<point x="74" y="524" type="line"/>
			<point x="76" y="168"/>
			<point x="162" y="-12"/>
		</contour>
	</outline>
	<anchor name="aboveHE" x="305" y="590"/>
	<anchor name="belowPrimaryHE" x="315" y="-30"/>
	<anchor name="centerHE" x="305" y="300"/>
	<anchor name="aboveLeftHE" x="-10" y="590"/>
</glyph>
<glyph name="heAyin" format="2">
	<unicode hex="05E2"/>
	<advance width="586"/>
	<outline>
		<contour>
			<point x="219" y="16" type="curve"/>
			<point x="246" y="22" type="line"/>
			<point x="222" y="208"/>
			<point x="152" y="421"/>
			<point x="92" y="552" type="curve"/>
			<point x="62" y="546" type="line"/>
			<point x="124" y="411"/>
			<point x="196" y="200"/>
		</contour>
		<contour>
			<point x="54" y="0" type="line"/>
			<point x="162" y="0" type="line" smooth="yes"/>
			<point x="390" y="0"/>
			<point x="528" y="202"/>
			<point x="528" y="380" type="curve" smooth="yes"/>
			<point x="528" y="505"/>
			<point x="482" y="546"/>
			<point x="388" y="546" type="curve" smooth="yes"/>
			<point x="328" y="546" type="line"/>
			<point x="328" y="514" type="line"/>
			<point x="384" y="514" type="line" smooth="yes"/>
			<point x="464" y="514"/>
			<point x="500" y="485"/>
			<point x="500" y="380" type="curve" smooth="yes"/>
			<point x="500" y="214"/>
			<point x="373" y="30"/>
			<point x="158" y="30" type="curve" smooth="yes"/>
			<point x="54" y="30" type="line"/>
		</contour>
	</outline>
</glyph>
<glyph name="hePeFin" format="2">
	<unicode hex="05E3"/>
	<advance width="526"/>
	<outline>
		<contour>
			<point x="394" y="-202" type="curve"/>
			<point x="424" y="-202" type="line"/>
			<point x="430" y="-12"/>
			<point x="430" y="146"/>
			<point x="430" y="320" type="curve" smooth="yes"/>
			<point x="430" y="498"/>
			<point x="352" y="558"/>
			<point x="232" y="558" type="curve" smooth="yes"/>
			<point x="124" y="558"/>
			<point x="46" y="492"/>
			<point x="46" y="380" type="curve" smooth="yes"/>
			<point x="46" y="272"/>
			<point x="108" y="240"/>
			<point x="186" y="240" type="curve" smooth="yes"/>
			<point x="216" y="240" type="line"/>
			<point x="216" y="270" type="line"/>
			<point x="190" y="270" type="line" smooth="yes"/>
			<point x="127" y="270"/>
			<point x="76" y="294"/>
			<point x="76" y="380" type="curve" smooth="yes"/>
			<point x="76" y="477"/>
			<point x="139" y="530"/>
			<point x="230" y="530" type="curve" smooth="yes"/>
			<point x="333" y="530"/>
			<point x="400" y="486"/>
			<point x="400" y="314" type="curve" smooth="yes"/>
			<point x="400" y="142"/>
			<point x="400" y="-8"/>
		</contour>
	</outline>
	<anchor name="aboveHE" x="230" y="590"/>
	<anchor name="belowRightHE" x="330" y="-30"/>
	<anchor name="centerHE" x="300" y="250"/>
	<anchor name="aboveLeftHE" x="30" y="590"/>
</glyph>
<glyph name="hePe" format="2">
	<unicode hex="05E4"/>
	<advance width="556"/>
	<outline>
		<contour>
			<point x="54" y="0" type="line"/>
			<point x="428" y="0" type="line"/>
			<point x="446" y="104"/>
			<point x="460" y="202"/>
			<point x="460" y="320" type="curve" smooth="yes"/>
			<point x="460" y="496"/>
			<point x="384" y="558"/>
			<point x="246" y="558" type="curve" smooth="yes"/>
			<point x="137" y="558"/>
			<point x="56" y="492"/>
			<point x="56" y="380" type="curve" smooth="yes"/>
			<point x="56" y="272"/>
			<point x="118" y="240"/>
			<point x="196" y="240" type="curve" smooth="yes"/>
			<point x="226" y="240" type="line"/>
			<point x="226" y="268" type="line"/>
			<point x="200" y="268" type="line" smooth="yes"/>
			<point x="137" y="268"/>
			<point x="86" y="293"/>
			<point x="86" y="380" type="curve" smooth="yes"/>
			<point x="86" y="477"/>
			<point x="151" y="530"/>
			<point x="244" y="530" type="curve" smooth="yes"/>
			<point x="365" y="530"/>
			<point x="430" y="480"/>
			<point x="430" y="314" type="curve" smooth="yes"/>
			<point x="430" y="208"/>
			<point x="420" y="120"/>
			<point x="403" y="28" type="curve"/>
			<point x="54" y="28" type="line"/>
		</contour>
	</outline>
	<anchor name="aboveHE" x="260" y="590"/>
	<anchor name="belowPrimaryHE" x="240" y="-30"/>
	<anchor name="centerHE" x="320" y="250"/>
	<anchor name="aboveLeftHE" x="40" y="590"/>
</glyph>
<glyph name="heTsadiFin" format="2">
	<unicode hex="05E5"/>
	<advance width="522"/>
	<outline>
		<contour>
			<point x="182" y="103" type="line"/>
			<point x="350" y="210"/>
			<point x="464" y="342"/>
			<point x="464" y="448" type="curve" smooth="yes"/>
			<point x="464" y="516"/>
			<point x="440" y="546"/>
			<point x="366" y="546" type="curve" smooth="yes"/>
			<point x="294" y="546" type="line"/>
			<point x="294" y="516" type="line"/>
			<point x="352" y="516" type="line" smooth="yes"/>
			<point x="423" y="516"/>
			<point x="436" y="495"/>
			<point x="436" y="450" type="curve" smooth="yes"/>
			<point x="436" y="342"/>
			<point x="338" y="230"/>
			<point x="154" y="119" type="curve"/>
		</contour>
		<contour>
			<point x="126" y="-200" type="line"/>
			<point x="154" y="-200" type="line"/>
			<point x="154" y="410" type="line" smooth="yes"/>
			<point x="154" y="518"/>
			<point x="116" y="546"/>
			<point x="38" y="546" type="curve" smooth="yes"/>
			<point x="4" y="546" type="line"/>
			<point x="4" y="516" type="line"/>
			<point x="32" y="516" type="line" smooth="yes"/>
			<point x="96" y="516"/>
			<point x="126" y="498"/>
			<point x="126" y="404" type="curve" smooth="yes"/>
		</contour>
	</outline>
</glyph>
<glyph name="heResh" format="2">
	<unicode hex="05E8"/>
	<advance width="482"/>
	<outline>
		<contour>
			<point x="352" y="0" type="line"/>
			<point x="380" y="0" type="line"/>
			<point x="380" y="360" type="line" smooth="yes"/>
			<point x="380" y="496"/>
			<point x="315" y="545"/>
			<point x="215" y="545" type="curve"/>
			<point x="10" y="545" type="line"/>
			<point x="4" y="515" type="line"/>
			<point x="213" y="515" type="line"/>
			<point x="295" y="515"/>
			<point x="352" y="477"/>
			<point x="352" y="360" type="curve" smooth="yes"/>
		</contour>
	</outline>
</glyph>
<glyph name="heShin" format="2">
	<unicode hex="05E9"/>
	<advance width="690"/>
	<outline>
		<contour>
			<point x="336" y="-12" type="curve" smooth="yes"/>
			<point x="500" y="-12"/>
			<point x="632" y="206"/>
			<point x="632" y="390" type="curve" smooth="yes"/>
			<point x="632" y="514"/>
			<point x="599" y="546"/>
			<point x="522" y="546" type="curve" smooth="yes"/>
			<point x="482" y="546" type="line"/>
			<point x="482" y="518" type="line"/>
			<point x="516" y="518" type="line" smooth="yes"/>
			<point x="578" y="518"/>
			<point x="604" y="497"/>
			<point x="604" y="390" type="curve" smooth="yes"/>
			<point x="604" y="223"/>
			<point x="487" y="16"/>
			<point x="336" y="16" type="curve" smooth="yes"/>
			<point x="172" y="16"/>
			<point x="100" y="157"/>
			<point x="98" y="550" type="curve"/>
			<point x="64" y="546" type="line"/>
			<point x="76" y="130"/>
			<point x="156" y="-12"/>
		</contour>
		<contour>
			<point x="156" y="98" type="line"/>
			<point x="328" y="254"/>
			<point x="402" y="364"/>
			<point x="402" y="454" type="curve" smooth="yes"/>
			<point x="402" y="512"/>
			<point x="384" y="546"/>
			<point x="314" y="546" type="curve" smooth="yes"/>
			<point x="270" y="546" type="line"/>
			<point x="270" y="518" type="line"/>
			<point x="298" y="518" type="line" smooth="yes"/>
			<point x="364" y="518"/>
			<point x="374" y="491"/>
			<point x="374" y="452" type="curve" smooth="yes"/>
			<point x="374" y="386"/>
			<point x="313" y="269"/>
			<point x="146" y="126" type="curve"/>
		</contour>
	</outline>
	<anchor name="aboveHE" x="325" y="590"/>
	<anchor name="belowPrimaryHE" x="320" y="-30"/>
	<anchor name="sinHE" x="80" y="560"/>
	<anchor name="centerHE" x="440" y="250"/>
	<anchor name="shinHE" x="580" y="560"/>
	<anchor name="aboveLeftHE" x="-50" y="590"/>
</glyph>
<glyph name="heGeresh" format="2">
	<unicode hex="05F3"/>
	<advance width="207"/>
	<outline>
		<contour>
			<point x="34" y="429" type="line"/>
			<point x="74" y="431" type="line"/>
			<point x="173" y="647" type="line"/>
			<point x="115" y="642" type="line"/>
		</contour>
	</outline>
</glyph>
<glyph name="ZWJ" format="2">
	<unicode hex="200D"/>
	<outline>
		<contour>
			<point x="-146" y="665" type="line"/>
			<point x="-120" y="665" type="line"/>
			<point x="-120" y="742" type="line"/>
			<point x="120" y="742" type="line"/>
			<point x="120" y="665" type="line"/>
			<point x="146" y="665" type="line"/>
			<point x="146" y="770" type="line"/>
			<point x="-146" y="770" type="line"/>
		</contour>
	</outline>
</glyph>
<glyph name="fraction.S" format="2">
	<unicode hex="2044"/>
	<advance width="78"/>
	<outline>
		<contour>
			<point x="-152" y="-12" type="line"/>
			<point x="-120" y="-12" type="line"/>
			<point x="230" y="558" type="line"/>
			<point x="198" y="558" type="line"/>
		</contour>
	</outline>
</glyph>
<glyph name="Euro.S" format="2">
	<unicode hex="20AC"/>
	<advance width="472"/>
	<outline>
		<contour>
			<point x="314" y="-12" type="curve" smooth="yes"/>
			<point x="372" y="-12"/>
			<point x="420" y="14"/>
			<point x="452" y="44" type="curve"/>
			<point x="432" y="66" type="line"/>
			<point x="404" y="40"/>
			<point x="362" y="18"/>
			<point x="314" y="18" type="curve" smooth="yes"/>
			<point x="202" y="18"/>
			<point x="116" y="94"/>
			<point x="116" y="276" type="curve" smooth="yes"/>
			<point x="116" y="456"/>
			<point x="208" y="528"/>
			<point x="302" y="528" type="curve" smooth="yes"/>
			<point x="350" y="528"/>
			<point x="382" y="514"/>
			<point x="418" y="484" type="curve"/>
			<point x="438" y="506" type="line"/>
			<point x="398" y="540"/>
			<point x="360" y="558"/>
			<point x="302" y="558" type="curve" smooth="yes"/>
			<point x="192" y="558"/>
			<point x="88" y="478"/>
			<point x="88" y="276" type="curve" smooth="yes"/>
			<point x="88" y="70"/>
			<point x="186" y="-12"/>
		</contour>
		<contour>
			<point x="24" y="204" type="line"/>
			<point x="370" y="204" type="line"/>
			<point x="370" y="232" type="line"/>
			<point x="90" y="232" type="line"/>
			<point x="24" y="228" type="line"/>
		</contour>
		<contour>
			<point x="24" y="314" type="line"/>
			<point x="410" y="314" type="line"/>
			<point x="410" y="342" type="line"/>
			<point x="92" y="342" type="line"/>
			<point x="24" y="338" type="line"/>
		</contour>
	</outline>
</glyph>
<glyph name="arrowdown.S" format="2">
	<unicode hex="2193"/>
	<advance width="620"/>
	<outline>
		<contour>
			<point x="308" y="-4" type="line"/>
			<point x="312" y="-4" type="line"/>
			<point x="576" y="264" type="line"/>
			<point x="556" y="284" type="line"/>
			<point x="324" y="42" type="line"/>
			<point x="324" y="546" type="line"/>
			<point x="296" y="546" type="line"/>
			<point x="296" y="42" type="line"/>
			<point x="64" y="284" type="line"/>
			<point x="44" y="264" type="line"/>
		</contour>
	</outline>
</glyph>
<glyph name="arrowupleft.S" format="2">
	<unicode hex="2196"/>
	<advance width="620"/>
	<outline>
		<contour>
			<point x="490" y="68" type="line"/>
			<point x="509" y="87" type="line"/>
			<point x="153" y="444" type="line"/>
			<point x="488" y="437" type="line"/>
			<point x="488" y="465" type="line"/>
			<point x="112" y="468" type="line"/>
			<point x="109" y="465" type="line"/>
			<point x="112" y="89" type="line"/>
			<point x="140" y="89" type="line"/>
			<point x="133" y="424" type="line"/>
		</contour>
	</outline>
</glyph>
<glyph name="arrowdownleft.S" format="2">
	<unicode hex="2199"/>
	<advance width="620"/>
	<outline>
		<contour>
			<point x="117" y="75" type="line"/>
			<point x="493" y="78" type="line"/>
			<point x="493" y="106" type="line"/>
			<point x="158" y="99" type="line"/>
			<point x="514" y="456" type="line"/>
			<point x="495" y="475" type="line"/>
			<point x="138" y="119" type="line"/>
			<point x="145" y="454" type="line"/>
			<point x="117" y="454" type="line"/>
			<point x="114" y="78" type="line"/>
		</contour>
	</outline>
</glyph>
<glyph name="arrowdblleft.S" format="2">
	<unicode hex="21D0"/>
	<advance width="620"/>
	<outline>
		<contour>
			<point x="298" y="6" type="line"/>
			<point x="318" y="26" type="line"/>
			<point x="64" y="270" type="line"/>
			<point x="64" y="274" type="line"/>
			<point x="318" y="518" type="line"/>
			<point x="298" y="538" type="line"/>
			<point x="30" y="274" type="line"/>
			<point x="30" y="270" type="line"/>
		</contour>
		<contour>
			<point x="146" y="358" type="line"/>
			<point x="580" y="358" type="line"/>
			<point x="580" y="386" type="line"/>
			<point x="146" y="386" type="line"/>
		</contour>
		<contour>
			<point x="146" y="158" type="line"/>
			<point x="580" y="158" type="line"/>
			<point x="580" y="186" type="line"/>
			<point x="146" y="186" type="line"/>
		</contour>
	</outline>
</glyph>
<glyph name="arrowdblup.S" format="2">
	<unicode hex="21D1"/>
	<advance width="620"/>
	<outline>
		<contour>
			<point x="64" y="258" type="line"/>
			<point x="308" y="512" type="line"/>
			<point x="312" y="512" type="line"/>
			<point x="556" y="258" type="line"/>
			<point x="576" y="278" type="line"/>
			<point x="312" y="546" type="line"/>
			<point x="308" y="546" type="line"/>
			<point x="44" y="278" type="line"/>
		</contour>
		<contour>
			<point x="396" y="-4" type="line"/>
			<point x="424" y="-4" type="line"/>
			<point x="424" y="430" type="line"/>
			<point x="396" y="430" type="line"/>
		</contour>
		<contour>
			<point x="196" y="-4" type="line"/>
			<point x="224" y="-4" type="line"/>
			<point x="224" y="430" type="line"/>
			<point x="196" y="430" type="line"/>
		</contour>
	</outline>
</glyph>
<glyph name="arrowdblright.S" format="2">
	<unicode hex="21D2"/>
	<advance width="620"/>
	<outline>
		<contour>
			<point x="320" y="6" type="line"/>
			<point x="588" y="270" type="line"/>
			<point x="588" y="274" type="line"/>
			<point x="320" y="538" type="line"/>
			<point x="300" y="518" type="line"/>
			<point x="554" y="274" type="line"/>
			<point x="554" y="270" type="line"/>
			<point x="300" y="26" type="line"/>
		</contour>
		<contour>
			<point x="38" y="158" type="line"/>
			<point x="472" y="158" type="line"/>
			<point x="472" y="186" type="line"/>
			<point x="38" y="186" type="line"/>
		</contour>
		<contour>
			<point x="38" y="358" type="line"/>
			<point x="472" y="358" type="line"/>
			<point x="472" y="386" type="line"/>
			<point x="38" y="386" type="line"/>
		</contour>
	</outline>
</glyph>
<glyph name="heVarikaJud" format="2">
	<unicode hex="FB1E"/>
	<outline>
		<contour>
			<point x="0" y="636" type="curve" smooth="yes"/>
			<point x="80" y="636"/>
			<point x="110" y="702"/>
			<point x="116" y="752" type="curve"/>
			<point x="90" y="756" type="line"/>
			<point x="84" y="710"/>
			<point x="56" y="666"/>
			<point x="0" y="666" type="curve" smooth="yes"/>
			<point x="-56" y="666"/>
			<point x="-84" y="710"/>
			<point x="-90" y="756" type="curve"/>
			<point x="-116" y="752" type="line"/>
			<point x="-110" y="702"/>
			<point x="-80" y="636"/>
		</contour>
	</outline>
	<anchor name="_aboveHE" x="0" y="590"/>
	<guideline y="629" identifier="004QOttTDm"/>
</glyph>
<glyph name="heReshWide" format="2">
	<unicode hex="FB27"/>
	<advance width="1252"/>
	<outline>
		<contour>
			<point x="1124" y="0" type="line"/>
			<point x="1152" y="0" type="line"/>
			<point x="1152" y="350" type="line" smooth="yes"/>
			<point x="1152" y="494"/>
			<point x="1083" y="546"/>
			<point x="976" y="546" type="curve" smooth="yes"/>
			<point x="4" y="546" type="line"/>
			<point x="4" y="516" type="line"/>
			<point x="970" y="516" type="line" smooth="yes"/>
			<point x="1064" y="516"/>
			<point x="1124" y="475"/>
			<point x="1124" y="344" type="curve" smooth="yes"/>
		</contour>
	</outline>
	<anchor name="aboveHE" x="570" y="590"/>
	<anchor name="belowSecondaryHE" x="1140" y="-30"/>
	<anchor name="centerHE" x="550" y="260"/>
	<anchor name="aboveLeftHE" x="0" y="590"/>
</glyph>
<glyph name="plusalt" format="2">
	<unicode hex="FB29"/>
	<advance width="472"/>
	<outline>
		<contour>
			<point x="34" y="316" type="line"/>
			<point x="438" y="316" type="line"/>
			<point x="438" y="344" type="line"/>
			<point x="252" y="344" type="line"/>
			<point x="252" y="548" type="line"/>
			<point x="220" y="548" type="line"/>
			<point x="220" y="344" type="line"/>
			<point x="34" y="344" type="line"/>
		</contour>
	</outline>
</glyph>
<glyph name="ugBeta" format="2">
	<unicode hex="10381"/>
	<advance width="658"/>
	<outline>
		<contour>
			<point x="141" y="245" type="curve"/>
			<point x="160" y="245" type="line"/>
			<point x="160" y="432"/>
			<point x="166" y="560"/>
			<point x="187" y="600" type="curve"/>
			<point x="115" y="600" type="line"/>
			<point x="135" y="560"/>
			<point x="141" y="432"/>
		</contour>
		<contour>
			<point x="417" y="245" type="curve"/>
			<point x="436" y="245" type="line"/>
			<point x="436" y="432"/>
			<point x="442" y="560"/>
			<point x="463" y="600" type="curve"/>
			<point x="391" y="600" type="line"/>
			<point x="411" y="560"/>
			<point x="417" y="432"/>
		</contour>
		<component base="ugAlpa" yOffset="-30"/>
	</outline>
</glyph>
<glyph name="ugKha" format="2">
	<unicode hex="10383"/>
	<advance width="268"/>
	<outline>
		<contour>
			<point x="122" y="-56" type="curve"/>
			<point x="146" y="-56" type="line"/>
			<point x="146" y="75"/>
			<point x="154" y="164"/>
			<point x="172" y="192" type="curve"/>
			<point x="96" y="192" type="line"/>
			<point x="114" y="164"/>
			<point x="122" y="75"/>
		</contour>
		<contour>
			<point x="122" y="364" type="curve"/>
			<point x="146" y="364" type="line"/>
			<point x="146" y="489"/>
			<point x="154" y="573"/>
			<point x="172" y="600" type="curve"/>
			<point x="96" y="600" type="line"/>
			<point x="114" y="573"/>
			<point x="122" y="489"/>
		</contour>
		<contour>
			<point x="122" y="160" type="curve"/>
			<point x="146" y="160" type="line"/>
			<point x="146" y="285"/>
			<point x="154" y="369"/>
			<point x="172" y="396" type="curve"/>
			<point x="96" y="396" type="line"/>
			<point x="114" y="369"/>
			<point x="122" y="285"/>
		</contour>
	</outline>
</glyph>
<glyph name="ugDelta" format="2">
	<unicode hex="10384"/>
	<advance width="658"/>
	<outline>
		<contour>
			<point x="116" y="245" type="curve"/>
			<point x="135" y="245" type="line"/>
			<point x="135" y="432"/>
			<point x="141" y="560"/>
			<point x="162" y="600" type="curve"/>
			<point x="90" y="600" type="line"/>
			<point x="110" y="560"/>
			<point x="116" y="432"/>
		</contour>
		<contour>
			<point x="296" y="245" type="curve"/>
			<point x="315" y="245" type="line"/>
			<point x="315" y="432"/>
			<point x="321" y="560"/>
			<point x="342" y="600" type="curve"/>
			<point x="270" y="600" type="line"/>
			<point x="290" y="560"/>
			<point x="296" y="432"/>
		</contour>
		<contour>
			<point x="476" y="245" type="curve"/>
			<point x="495" y="245" type="line"/>
			<point x="495" y="432"/>
			<point x="501" y="560"/>
			<point x="522" y="600" type="curve"/>
			<point x="450" y="600" type="line"/>
			<point x="470" y="560"/>
			<point x="476" y="432"/>
		</contour>
		<component base="ugNun" yOffset="-30"/>
	</outline>
</glyph>
<glyph name="ugTet" format="2">
	<unicode hex="10389"/>
	<advance width="635"/>
	<outline>
		<contour>
			<point x="304" y="196" type="curve"/>
			<point x="328" y="196" type="line"/>
			<point x="328" y="410"/>
			<point x="333" y="555"/>
			<point x="355" y="600" type="curve"/>
			<point x="278" y="600" type="line"/>
			<point x="300" y="555"/>
			<point x="304" y="410"/>
		</contour>
		<contour>
			<point x="26" y="237" type="line"/>
			<point x="60" y="256"/>
			<point x="163" y="264"/>
			<point x="316" y="264" type="curve"/>
			<point x="316" y="283" type="line"/>
			<point x="163" y="283"/>
			<point x="60" y="290"/>
			<point x="26" y="309" type="curve"/>
		</contour>
		<contour>
			<point x="609" y="237" type="curve"/>
			<point x="609" y="309" type="line"/>
			<point x="576" y="290"/>
			<point x="472" y="283"/>
			<point x="316" y="283" type="curve"/>
			<point x="316" y="264" type="line"/>
			<point x="472" y="264"/>
			<point x="576" y="256"/>
		</contour>
	</outline>
</glyph>
<glyph name="ugMem" format="2">
	<unicode hex="1038E"/>
	<advance width="578"/>
	<outline>
		<contour>
			<point x="26" y="238" type="line"/>
			<point x="74" y="260"/>
			<point x="228" y="265"/>
			<point x="453" y="265" type="curve"/>
			<point x="453" y="284" type="line"/>
			<point x="228" y="284"/>
			<point x="74" y="289"/>
			<point x="26" y="310" type="curve"/>
		</contour>
		<component base="ugGamla" xOffset="310"/>
	</outline>
</glyph>
<glyph name="ugDhal" format="2">
	<unicode hex="1038F"/>
	<advance width="848"/>
	<outline>
		<contour>
			<point x="412" y="-56" type="curve"/>
			<point x="436" y="-56" type="line"/>
			<point x="624" y="223"/>
			<point x="763" y="429"/>
			<point x="822" y="468" type="curve"/>
			<point x="761" y="512" type="line"/>
			<point x="742" y="441"/>
			<point x="607" y="242"/>
			<point x="424" y="-32" type="curve"/>
			<point x="241" y="241"/>
			<point x="106" y="440"/>
			<point x="87" y="512" type="curve"/>
			<point x="26" y="467" type="line"/>
			<point x="85" y="428"/>
			<point x="224" y="222"/>
		</contour>
	</outline>
</glyph>
<glyph name="ugZu" format="2">
	<unicode hex="10391"/>
	<advance width="501"/>
	<outline>
		<contour>
			<point x="26" y="346" type="line"/>
			<point x="74" y="368"/>
			<point x="218" y="373"/>
			<point x="428" y="373" type="curve"/>
			<point x="428" y="392" type="line"/>
			<point x="218" y="392"/>
			<point x="74" y="397"/>
			<point x="26" y="418" type="curve"/>
		</contour>
		<contour>
			<point x="26" y="130" type="line"/>
			<point x="74" y="152"/>
			<point x="218" y="157"/>
			<point x="428" y="157" type="curve"/>
			<point x="428" y="176" type="line"/>
			<point x="218" y="176"/>
			<point x="74" y="181"/>
			<point x="26" y="202" type="curve"/>
		</contour>
		<contour>
			<point x="470" y="92" type="line"/>
			<point x="474" y="94" type="line"/>
			<point x="432" y="154"/>
			<point x="412" y="212"/>
			<point x="412" y="272" type="curve" smooth="yes"/>
			<point x="412" y="332"/>
			<point x="432" y="390"/>
			<point x="474" y="450" type="curve"/>
			<point x="470" y="452" type="line"/>
			<point x="278" y="272" type="line"/>
		</contour>
	</outline>
</glyph>
<glyph name="ugSamka" format="2">
	<unicode hex="10392"/>
	<advance width="404"/>
	<outline>
		<contour>
			<point x="122" y="293" type="curve"/>
			<point x="146" y="293" type="line"/>
			<point x="146" y="457"/>
			<point x="154" y="567"/>
			<point x="173" y="601" type="curve"/>
			<point x="96" y="601" type="line"/>
			<point x="115" y="567"/>
			<point x="122" y="457"/>
		</contour>
		<contour>
			<point x="218" y="-55" type="curve"/>
			<point x="242" y="-55" type="line"/>
			<point x="242" y="121"/>
			<point x="248" y="239"/>
			<point x="269" y="277" type="curve"/>
			<point x="192" y="277" type="line"/>
			<point x="212" y="239"/>
			<point x="218" y="121"/>
		</contour>
		<contour>
			<point x="314" y="293" type="curve"/>
			<point x="338" y="293" type="line"/>
			<point x="338" y="457"/>
			<point x="346" y="567"/>
			<point x="365" y="601" type="curve"/>
			<point x="288" y="601" type="line"/>
			<point x="307" y="567"/>
			<point x="314" y="457"/>
		</contour>
	</outline>
</glyph>
<glyph name="ugAin" format="2">
	<unicode hex="10393"/>
	<advance width="412"/>
	<outline>
		<contour>
			<point x="26" y="184" type="line"/>
			<point x="28" y="179" type="line"/>
			<point x="88" y="222"/>
			<point x="146" y="244"/>
			<point x="206" y="244" type="curve" smooth="yes"/>
			<point x="266" y="244"/>
			<point x="324" y="222"/>
			<point x="384" y="179" type="curve"/>
			<point x="386" y="184" type="line"/>
			<point x="206" y="386" type="line"/>
		</contour>
	</outline>
</glyph>
<glyph name="ugQopa" format="2">
	<unicode hex="10396"/>
	<advance width="514"/>
	<outline>
		<contour>
			<point x="26" y="238" type="line"/>
			<point x="55" y="257"/>
			<point x="146" y="264"/>
			<point x="256" y="264" type="curve"/>
			<point x="256" y="284" type="line"/>
			<point x="146" y="284"/>
			<point x="55" y="291"/>
			<point x="26" y="310" type="curve"/>
		</contour>
		<contour>
			<point x="488" y="238" type="curve"/>
			<point x="488" y="310" type="line"/>
			<point x="459" y="291"/>
			<point x="367" y="284"/>
			<point x="256" y="284" type="curve"/>
			<point x="256" y="264" type="line"/>
			<point x="367" y="264"/>
			<point x="459" y="257"/>
		</contour>
	</outline>
</glyph>
<glyph name="ugThanna" format="2">
	<unicode hex="10398"/>
	<advance width="268"/>
	<outline>
		<contour>
			<point x="122" y="64" type="curve"/>
			<point x="146" y="64" type="line"/>
			<point x="146" y="228"/>
			<point x="150" y="338"/>
			<point x="172" y="372" type="curve"/>
			<point x="96" y="372" type="line"/>
			<point x="118" y="338"/>
			<point x="122" y="228"/>
		</contour>
		<contour>
			<point x="96" y="172" type="curve"/>
			<point x="172" y="172" type="line"/>
			<point x="150" y="206"/>
			<point x="146" y="316"/>
			<point x="146" y="480" type="curve"/>
			<point x="122" y="480" type="line"/>
			<point x="122" y="316"/>
			<point x="118" y="206"/>
		</contour>
	</outline>
</glyph>
<glyph name="ugTo" format="2">
	<unicode hex="1039A"/>
	<advance width="658"/>
	<outline>
		<contour>
			<point x="26" y="238" type="line"/>
			<point x="92" y="264"/>
			<point x="312" y="264"/>
			<point x="632" y="264" type="curve"/>
			<point x="632" y="284" type="line"/>
			<point x="312" y="284"/>
			<point x="92" y="284"/>
			<point x="26" y="310" type="curve"/>
		</contour>
	</outline>
</glyph>
<glyph name="ugSsu" format="2">
	<unicode hex="1039D"/>
	<advance width="608"/>
	<outline>
		<contour>
			<point x="98" y="448" type="curve"/>
			<point x="172" y="448" type="line"/>
			<point x="155" y="468"/>
			<point x="144" y="520"/>
			<point x="144" y="600" type="curve"/>
			<point x="125" y="600" type="line"/>
			<point x="125" y="520"/>
			<point x="115" y="468"/>
		</contour>
		<contour>
			<point x="96" y="-56" type="curve"/>
			<point x="172" y="-56" type="line"/>
			<point x="155" y="-39"/>
			<point x="144" y="12"/>
			<point x="144" y="84" type="curve"/>
			<point x="125" y="84" type="line"/>
			<point x="125" y="12"/>
			<point x="113" y="-39"/>
		</contour>
		<contour>
			<point x="98" y="196" type="curve"/>
			<point x="172" y="196" type="line"/>
			<point x="155" y="213"/>
			<point x="144" y="264"/>
			<point x="144" y="336" type="curve"/>
			<point x="125" y="336" type="line"/>
			<point x="125" y="264"/>
			<point x="115" y="213"/>
		</contour>
		<contour>
			<point x="436" y="448" type="curve"/>
			<point x="512" y="448" type="line"/>
			<point x="495" y="468"/>
			<point x="484" y="520"/>
			<point x="484" y="600" type="curve"/>
			<point x="465" y="600" type="line"/>
			<point x="465" y="520"/>
			<point x="453" y="468"/>
		</contour>
		<contour>
			<point x="436" y="-56" type="curve"/>
			<point x="512" y="-56" type="line"/>
			<point x="495" y="-39"/>
			<point x="484" y="12"/>
			<point x="484" y="84" type="curve"/>
			<point x="465" y="84" type="line"/>
			<point x="465" y="12"/>
			<point x="453" y="-39"/>
		</contour>
		<contour>
			<point x="436" y="196" type="curve"/>
			<point x="512" y="196" type="line"/>
			<point x="495" y="213"/>
			<point x="484" y="264"/>
			<point x="484" y="336" type="curve"/>
			<point x="465" y="336" type="line"/>
			<point x="465" y="264"/>
			<point x="453" y="213"/>
		</contour>
		<component base="ugGamla" xOffset="170"/>
	</outline>
</glyph>
<glyph name="aiBeth" format="2">
	<unicode hex="10841"/>
	<advance width="478"/>
	<outline>
		<contour>
			<point x="54" y="0" type="line"/>
			<point x="138" y="0" type="line" smooth="yes"/>
			<point x="323" y="0"/>
			<point x="420" y="104"/>
			<point x="420" y="300" type="curve" smooth="yes"/>
			<point x="420" y="480"/>
			<point x="348" y="546"/>
			<point x="212" y="546" type="curve" smooth="yes"/>
			<point x="148" y="546" type="line" smooth="yes"/>
			<point x="106" y="546"/>
			<point x="96" y="560"/>
			<point x="96" y="592" type="curve" smooth="yes"/>
			<point x="96" y="640"/>
			<point x="106" y="686"/>
			<point x="120" y="736" type="curve"/>
			<point x="90" y="732" type="line"/>
			<point x="74" y="676"/>
			<point x="66" y="632"/>
			<point x="66" y="584" type="curve" smooth="yes"/>
			<point x="66" y="536"/>
			<point x="92" y="516"/>
			<point x="134" y="516" type="curve" smooth="yes"/>
			<point x="206" y="516" type="line" smooth="yes"/>
			<point x="330" y="516"/>
			<point x="392" y="464"/>
			<point x="392" y="294" type="curve" smooth="yes"/>
			<point x="392" y="118"/>
			<point x="303" y="28"/>
			<point x="138" y="28" type="curve" smooth="yes"/>
			<point x="54" y="28" type="line"/>
		</contour>
	</outline>
</glyph>
<glyph name="aiHe" format="2">
	<unicode hex="10844"/>
	<advance width="622"/>
	<outline>
		<contour>
			<point x="492" y="0" type="line"/>
			<point x="520" y="0" type="line"/>
			<point x="520" y="350" type="line" smooth="yes"/>
			<point x="520" y="494"/>
			<point x="451" y="546"/>
			<point x="344" y="546" type="curve" smooth="yes"/>
			<point x="94" y="546" type="line"/>
			<point x="94" y="516" type="line"/>
			<point x="338" y="516" type="line" smooth="yes"/>
			<point x="432" y="516"/>
			<point x="492" y="475"/>
			<point x="492" y="344" type="curve" smooth="yes"/>
		</contour>
		<contour>
			<point x="174" y="0" type="line"/>
			<point x="202" y="0" type="line"/>
			<point x="202" y="516" type="line"/>
			<point x="180" y="516" type="line"/>
			<point x="174" y="490"/>
			<point x="174" y="462"/>
			<point x="174" y="426" type="curve" smooth="yes"/>
		</contour>
	</outline>
</glyph>
<glyph name="aiZayin" format="2">
	<unicode hex="10846"/>
	<advance width="244"/>
	<outline>
		<contour>
			<point x="114" y="0" type="line"/>
			<point x="142" y="0" type="line"/>
			<point x="142" y="546" type="line"/>
			<point x="114" y="546" type="line"/>
		</contour>
	</outline>
</glyph>
<glyph name="aiMem" format="2">
	<unicode hex="1084C"/>
	<advance width="456"/>
	<outline>
		<contour>
			<point x="74" y="238" type="line"/>
			<point x="217" y="326"/>
			<point x="252" y="488"/>
			<point x="252" y="612" type="curve" smooth="yes"/>
			<point x="252" y="653"/>
			<point x="250" y="693"/>
			<point x="246" y="736" type="curve"/>
			<point x="218" y="732" type="line"/>
			<point x="222" y="692"/>
			<point x="222" y="654"/>
			<point x="222" y="608" type="curve" smooth="yes"/>
			<point x="222" y="493"/>
			<point x="197" y="350"/>
			<point x="58" y="264" type="curve"/>
		</contour>
		<contour>
			<point x="62" y="-212" type="line"/>
			<point x="265" y="-55"/>
			<point x="398" y="216"/>
			<point x="398" y="396" type="curve" smooth="yes"/>
			<point x="398" y="500"/>
			<point x="358" y="546"/>
			<point x="236" y="546" type="curve" smooth="yes"/>
			<point x="118" y="546" type="line" smooth="yes"/>
			<point x="76" y="546"/>
			<point x="66" y="560"/>
			<point x="66" y="592" type="curve" smooth="yes"/>
			<point x="66" y="640"/>
			<point x="76" y="686"/>
			<point x="90" y="736" type="curve"/>
			<point x="60" y="732" type="line"/>
			<point x="44" y="676"/>
			<point x="36" y="632"/>
			<point x="36" y="584" type="curve" smooth="yes"/>
			<point x="36" y="536"/>
			<point x="62" y="516"/>
			<point x="104" y="516" type="curve" smooth="yes"/>
			<point x="230" y="516" type="line" smooth="yes"/>
			<point x="330" y="516"/>
			<point x="370" y="490"/>
			<point x="370" y="398" type="curve" smooth="yes"/>
			<point x="370" y="232"/>
			<point x="237" y="-47"/>
			<point x="44" y="-188" type="curve"/>
		</contour>
	</outline>
</glyph>
<glyph name="aiPe" format="2">
	<unicode hex="10850"/>
	<advance width="526"/>
	<outline>
		<contour>
			<point x="92" y="-212" type="line"/>
			<point x="318" y="-48"/>
			<point x="468" y="182"/>
			<point x="468" y="346" type="curve" smooth="yes"/>
			<point x="468" y="470"/>
			<point x="404" y="556"/>
			<point x="286" y="556" type="curve" smooth="yes"/>
			<point x="146" y="556"/>
			<point x="67" y="469"/>
			<point x="64" y="212" type="curve"/>
			<point x="92" y="212" type="line"/>
			<point x="92" y="443"/>
			<point x="161" y="524"/>
			<point x="286" y="524" type="curve" smooth="yes"/>
			<point x="379" y="524"/>
			<point x="440" y="465"/>
			<point x="440" y="348" type="curve" smooth="yes"/>
			<point x="440" y="196"/>
			<point x="292" y="-40"/>
			<point x="76" y="-186" type="curve"/>
		</contour>
	</outline>
	<anchor name="aboveHE" x="174" y="-246"/>
	<anchor name="belowRightHE" x="154" y="374"/>
	<anchor name="aboveLeftHE" x="54" y="-246"/>
</glyph>
<glyph name="aiShin" format="2">
	<unicode hex="10854"/>
	<advance width="690"/>
	<outline>
		<contour>
			<point x="336" y="-12" type="curve" smooth="yes"/>
			<point x="490" y="-12"/>
			<point x="632" y="171"/>
			<point x="652" y="546" type="curve"/>
			<point x="626" y="546" type="line"/>
			<point x="606" y="190"/>
			<point x="476" y="18"/>
			<point x="336" y="18" type="curve" smooth="yes"/>
			<point x="172" y="18"/>
			<point x="100" y="158"/>
			<point x="98" y="550" type="curve"/>
			<point x="64" y="546" type="line"/>
			<point x="74" y="130"/>
			<point x="154" y="-12"/>
		</contour>
		<contour>
			<point x="156" y="98" type="line"/>
			<point x="331" y="283"/>
			<point x="394" y="336"/>
			<point x="424" y="547" type="curve"/>
			<point x="396" y="547" type="line"/>
			<point x="366" y="357"/>
			<point x="314" y="300"/>
			<point x="146" y="126" type="curve"/>
		</contour>
	</outline>
</glyph>
<glyph name="pmNun" format="2">
	<unicode hex="1086E"/>
	<advance width="392"/>
	<outline>
		<contour>
			<point x="54" y="0" type="line"/>
			<point x="290" y="0" type="line"/>
			<point x="290" y="380" type="line" smooth="yes"/>
			<point x="290" y="512"/>
			<point x="243" y="546"/>
			<point x="144" y="546" type="curve" smooth="yes"/>
			<point x="74" y="546" type="line"/>
			<point x="74" y="516" type="line"/>
			<point x="138" y="516" type="line" smooth="yes"/>
			<point x="224" y="516"/>
			<point x="262" y="494"/>
			<point x="262" y="374" type="curve" smooth="yes"/>
			<point x="262" y="28" type="line"/>
			<point x="54" y="28" type="line"/>
		</contour>
	</outline>
</glyph>
<glyph name="pmSadhe" format="2">
	<unicode hex="10872"/>
	<advance width="502"/>
	<outline>
		<contour>
			<point x="54" y="0" type="line"/>
			<point x="452" y="0" type="line"/>
			<point x="458" y="28" type="line"/>
			<point x="54" y="28" type="line"/>
		</contour>
		<contour>
			<point x="436" y="10" type="curve"/>
			<point x="458" y="28" type="line"/>
			<point x="274" y="194"/>
			<point x="132" y="364"/>
			<point x="58" y="550" type="curve"/>
			<point x="24" y="546" type="line"/>
			<point x="104" y="350"/>
			<point x="256" y="166"/>
		</contour>
		<contour>
			<point x="272" y="204" type="line"/>
			<point x="374" y="292"/>
			<point x="444" y="387"/>
			<point x="444" y="448" type="curve" smooth="yes"/>
			<point x="444" y="516"/>
			<point x="420" y="546"/>
			<point x="346" y="546" type="curve" smooth="yes"/>
			<point x="284" y="546" type="line"/>
			<point x="284" y="516" type="line"/>
			<point x="332" y="516" type="line" smooth="yes"/>
			<point x="403" y="516"/>
			<point x="416" y="495"/>
			<point x="416" y="450" type="curve" smooth="yes"/>
			<point x="416" y="394"/>
			<point x="358" y="310"/>
			<point x="252" y="222" type="curve"/>
		</contour>
	</outline>
</glyph>
<glyph name="hrHe" format="2">
	<unicode hex="108E4"/>
	<advance width="592"/>
	<outline>
		<contour>
			<point x="100" y="0" type="curve"/>
			<point x="130" y="0" type="line"/>
			<point x="128" y="22"/>
			<point x="126" y="43"/>
			<point x="126" y="62" type="curve" smooth="yes"/>
			<point x="126" y="214"/>
			<point x="156" y="304"/>
			<point x="202" y="398" type="curve"/>
			<point x="182" y="414" type="line"/>
			<point x="132" y="316"/>
			<point x="98" y="224"/>
			<point x="98" y="64" type="curve" smooth="yes"/>
			<point x="98" y="43"/>
			<point x="98" y="22"/>
		</contour>
		<contour>
			<point x="532" y="-4" type="curve"/>
			<point x="568" y="0" type="line"/>
			<point x="402" y="176"/>
			<point x="228" y="368"/>
			<point x="118" y="550" type="curve"/>
			<point x="82" y="546" type="line"/>
			<point x="208" y="356"/>
			<point x="382" y="158"/>
		</contour>
		<component base="aiZayin" xOffset="426"/>
	</outline>
	<anchor name="belowPrimaryHE" x="320" y="-30"/>
	<anchor name="aboveHE" x="310" y="590"/>
	<anchor name="centerHE" x="250" y="120"/>
	<anchor name="aboveLeftHE" x="40" y="590"/>
</glyph>
<glyph name="hrWaw" format="2">
	<unicode hex="108E5"/>
	<advance width="584"/>
	<outline>
		<contour>
			<point x="282" y="-12" type="line"/>
			<point x="417" y="86"/>
			<point x="478" y="181"/>
			<point x="478" y="276" type="curve" smooth="yes"/>
			<point x="478" y="449"/>
			<point x="374" y="526"/>
			<point x="236" y="556" type="curve"/>
			<point x="228" y="526" type="line"/>
			<point x="349" y="496"/>
			<point x="450" y="426"/>
			<point x="450" y="278" type="curve" smooth="yes"/>
			<point x="450" y="187"/>
			<point x="395" y="105"/>
			<point x="258" y="4" type="curve"/>
		</contour>
	</outline>
	<anchor name="belowPrimaryHE" x="325" y="-30"/>
	<anchor name="aboveHE" x="315" y="590"/>
	<anchor name="centerHE" x="315" y="300"/>
	<anchor name="aboveLeftHE" x="0" y="590"/>
</glyph>
<glyph name="hrHeth" format="2">
	<unicode hex="108E7"/>
	<advance width="614"/>
	<outline>
		<contour>
			<point x="100" y="0" type="line"/>
			<point x="128" y="0" type="line"/>
			<point x="128" y="378" type="line" smooth="yes"/>
			<point x="128" y="426"/>
			<point x="126" y="471"/>
			<point x="124" y="520" type="curve"/>
			<point x="128" y="520" type="line"/>
			<point x="208" y="396" type="line"/>
			<point x="476" y="-6" type="line"/>
			<point x="514" y="0" type="line"/>
			<point x="514" y="546" type="line"/>
			<point x="486" y="546" type="line"/>
			<point x="486" y="172" type="line" smooth="yes"/>
			<point x="486" y="123"/>
			<point x="488" y="75"/>
			<point x="490" y="26" type="curve"/>
			<point x="486" y="26" type="line"/>
			<point x="406" y="150" type="line"/>
			<point x="138" y="552" type="line"/>
			<point x="100" y="546" type="line"/>
		</contour>
	</outline>
</glyph>
<glyph name="hrLamedh" format="2">
	<unicode hex="108EB"/>
	<advance width="376"/>
	<outline>
		<contour>
			<point x="122" y="-12" type="line"/>
			<point x="280" y="162"/>
			<point x="318" y="262"/>
			<point x="318" y="396" type="curve" smooth="yes"/>
			<point x="318" y="604"/>
			<point x="16" y="732"/>
			<point x="-324" y="732" type="curve"/>
			<point x="-332" y="702" type="line"/>
			<point x="-21" y="702"/>
			<point x="290" y="580"/>
			<point x="290" y="398" type="curve" smooth="yes"/>
			<point x="290" y="267"/>
			<point x="260" y="182"/>
			<point x="98" y="4" type="curve"/>
		</contour>
	</outline>
	<anchor name="belowLeftHE" x="30" y="-30"/>
</glyph>
<glyph name="hrNun" format="2">
	<unicode hex="108ED"/>
	<advance width="228"/>
	<outline>
		<contour>
			<point x="-42" y="-202" type="line"/>
			<point x="-18" y="-202" type="line" smooth="yes"/>
			<point x="82" y="-202"/>
			<point x="128" y="-168"/>
			<point x="128" y="-36" type="curve" smooth="yes"/>
			<point x="128" y="546" type="line"/>
			<point x="100" y="546" type="line"/>
			<point x="100" y="-30" type="line" smooth="yes"/>
			<point x="100" y="-150"/>
			<point x="62" y="-172"/>
			<point x="-24" y="-172" type="curve" smooth="yes"/>
			<point x="-42" y="-172" type="line"/>
		</contour>
	</outline>
	<anchor name="aboveHE" x="64" y="-246"/>
	<anchor name="aboveLeftHE" x="-56" y="-246"/>
	<anchor name="belowRightHE" x="44" y="374"/>
</glyph>
<glyph name="hrSadhe" format="2">
	<unicode hex="108F1"/>
	<advance width="614"/>
	<outline>
		<contour>
			<point x="108" y="-202" type="line"/>
			<point x="135" y="-202" type="line"/>
			<point x="135" y="378" type="line" smooth="yes"/>
			<point x="135" y="426"/>
			<point x="133" y="471"/>
			<point x="131" y="520" type="curve"/>
			<point x="135" y="520" type="line"/>
			<point x="212" y="396" type="line"/>
			<point x="469" y="-6" type="line"/>
			<point x="506" y="0" type="line"/>
			<point x="506" y="546" type="line"/>
			<point x="479" y="546" type="line"/>
			<point x="479" y="172" type="line" smooth="yes"/>
			<point x="479" y="123"/>
			<point x="481" y="75"/>
			<point x="483" y="26" type="curve"/>
			<point x="479" y="26" type="line"/>
			<point x="402" y="150" type="line"/>
			<point x="145" y="552" type="line"/>
			<point x="108" y="546" type="line"/>
		</contour>
	</outline>
</glyph>
<glyph name="pnWau" format="2">
	<unicode hex="10905"/>
	<advance width="546"/>
	<outline>
		<contour>
			<point x="266" y="-202" type="line"/>
			<point x="294" y="-202" type="line"/>
			<point x="294" y="170" type="line"/>
			<point x="266" y="170" type="line"/>
		</contour>
		<contour>
			<point x="278" y="166" type="curve" smooth="yes"/>
			<point x="412" y="166"/>
			<point x="486" y="274"/>
			<point x="488" y="510" type="curve"/>
			<point x="460" y="510" type="line"/>
			<point x="460" y="300"/>
			<point x="399" y="198"/>
			<point x="278" y="198" type="curve" smooth="yes"/>
			<point x="156" y="198"/>
			<point x="94" y="300"/>
			<point x="94" y="514" type="curve"/>
			<point x="64" y="510" type="line"/>
			<point x="66" y="272"/>
			<point x="146" y="166"/>
		</contour>
	</outline>
</glyph>
<glyph name="pnTet" format="2">
	<unicode hex="10908"/>
	<advance width="568"/>
	<outline>
		<contour>
			<point x="270" y="88" type="line"/>
			<point x="298" y="88" type="line"/>
			<point x="298" y="246" type="line"/>
			<point x="446" y="246" type="line"/>
			<point x="446" y="278" type="line"/>
			<point x="298" y="278" type="line"/>
			<point x="298" y="414" type="line"/>
			<point x="270" y="414" type="line"/>
			<point x="270" y="278" type="line"/>
			<point x="122" y="278" type="line"/>
			<point x="122" y="246" type="line"/>
			<point x="270" y="246" type="line"/>
		</contour>
		<contour>
			<point x="284" y="-12" type="curve" smooth="yes"/>
			<point x="416" y="-12"/>
			<point x="512" y="93"/>
			<point x="512" y="256" type="curve" smooth="yes"/>
			<point x="512" y="419"/>
			<point x="416" y="522"/>
			<point x="284" y="522" type="curve" smooth="yes"/>
			<point x="151" y="522"/>
			<point x="56" y="419"/>
			<point x="56" y="256" type="curve" smooth="yes"/>
			<point x="56" y="93"/>
			<point x="151" y="-12"/>
		</contour>
		<contour>
			<point x="284" y="22" type="curve" smooth="yes"/>
			<point x="165" y="22"/>
			<point x="86" y="112"/>
			<point x="86" y="256" type="curve" smooth="yes"/>
			<point x="86" y="400"/>
			<point x="165" y="488"/>
			<point x="284" y="488" type="curve" smooth="yes"/>
			<point x="402" y="488"/>
			<point x="482" y="400"/>
			<point x="482" y="256" type="curve" smooth="yes"/>
			<point x="482" y="112"/>
			<point x="402" y="22"/>
		</contour>
	</outline>
</glyph>
<glyph name="pnLamd" format="2">
	<unicode hex="1090B"/>
	<advance width="410"/>
	<outline>
		<contour>
			<point x="100" y="0" type="line"/>
			<point x="390" y="0" type="line"/>
			<point x="390" y="30" type="line"/>
			<point x="128" y="30" type="line"/>
			<point x="128" y="700" type="line"/>
			<point x="100" y="700" type="line"/>
		</contour>
	</outline>
</glyph>
<glyph name="pnMem" format="2">
	<unicode hex="1090C"/>
	<advance width="818"/>
	<outline>
		<contour>
			<point x="688" y="-202" type="line"/>
			<point x="718" y="-202" type="line"/>
			<point x="718" y="510" type="line"/>
			<point x="692" y="510" type="line"/>
			<point x="688" y="311"/>
			<point x="623" y="200"/>
			<point x="532" y="200" type="curve" smooth="yes"/>
			<point x="453" y="200"/>
			<point x="406" y="301"/>
			<point x="406" y="514" type="curve"/>
			<point x="378" y="510" type="line"/>
			<point x="374" y="311"/>
			<point x="309" y="200"/>
			<point x="218" y="200" type="curve" smooth="yes"/>
			<point x="137" y="200"/>
			<point x="94" y="291"/>
			<point x="94" y="514" type="curve"/>
			<point x="64" y="510" type="line"/>
			<point x="66" y="262"/>
			<point x="123" y="166"/>
			<point x="218" y="166" type="curve" smooth="yes"/>
			<point x="298" y="166"/>
			<point x="372" y="239"/>
			<point x="394" y="396" type="curve"/>
			<point x="386" y="396" type="line"/>
			<point x="400" y="240"/>
			<point x="458" y="166"/>
			<point x="532" y="166" type="curve" smooth="yes"/>
			<point x="614" y="166"/>
			<point x="672" y="242"/>
			<point x="698" y="342" type="curve"/>
			<point x="694" y="344" type="line"/>
			<point x="690" y="266"/>
			<point x="688" y="220"/>
			<point x="688" y="172" type="curve" smooth="yes"/>
		</contour>
	</outline>
</glyph>
<glyph name="pnPe" format="2">
	<unicode hex="10910"/>
	<advance width="564"/>
	<outline>
		<contour>
			<point x="438" y="-120" type="line"/>
			<point x="466" y="-120" type="line"/>
			<point x="466" y="354" type="line" smooth="yes"/>
			<point x="466" y="514"/>
			<point x="373" y="558"/>
			<point x="282" y="558" type="curve" smooth="yes"/>
			<point x="190" y="558"/>
			<point x="98" y="514"/>
			<point x="98" y="354" type="curve" smooth="yes"/>
			<point x="98" y="276" type="line"/>
			<point x="126" y="276" type="line"/>
			<point x="126" y="348" type="line" smooth="yes"/>
			<point x="126" y="485"/>
			<point x="199" y="524"/>
			<point x="282" y="524" type="curve" smooth="yes"/>
			<point x="364" y="524"/>
			<point x="438" y="485"/>
			<point x="438" y="348" type="curve" smooth="yes"/>
		</contour>
	</outline>
</glyph>
<glyph name="pnSade" format="2">
	<unicode hex="10911"/>
	<advance width="818"/>
	<outline>
		<contour>
			<point x="100" y="-202" type="line"/>
			<point x="130" y="-202" type="line"/>
			<point x="130" y="172" type="line" smooth="yes"/>
			<point x="130" y="212"/>
			<point x="130" y="248"/>
			<point x="125" y="316" type="curve"/>
			<point x="120" y="315" type="line"/>
			<point x="144" y="218"/>
			<point x="186" y="166"/>
			<point x="258" y="166" type="curve" smooth="yes"/>
			<point x="338" y="166"/>
			<point x="412" y="239"/>
			<point x="434" y="396" type="curve"/>
			<point x="426" y="396" type="line"/>
			<point x="440" y="240"/>
			<point x="498" y="166"/>
			<point x="572" y="166" type="curve" smooth="yes"/>
			<point x="678" y="166"/>
			<point x="754" y="284"/>
			<point x="760" y="510" type="curve"/>
			<point x="732" y="510" type="line"/>
			<point x="728" y="311"/>
			<point x="663" y="200"/>
			<point x="572" y="200" type="curve" smooth="yes"/>
			<point x="493" y="200"/>
			<point x="446" y="301"/>
			<point x="446" y="514" type="curve"/>
			<point x="418" y="510" type="line"/>
			<point x="414" y="311"/>
			<point x="349" y="200"/>
			<point x="258" y="200" type="curve" smooth="yes"/>
			<point x="173" y="200"/>
			<point x="128" y="291"/>
			<point x="128" y="514" type="curve"/>
			<point x="100" y="510" type="line"/>
		</contour>
	</outline>
</glyph>
<glyph name="pnQof" format="2">
	<unicode hex="10912"/>
	<advance width="584"/>
	<outline>
		<contour>
			<point x="278" y="-202" type="line"/>
			<point x="306" y="-202" type="line"/>
			<point x="306" y="502" type="line"/>
			<point x="278" y="502" type="line"/>
		</contour>
		<contour>
			<point x="292" y="64" type="curve" smooth="yes"/>
			<point x="429" y="64"/>
			<point x="528" y="154"/>
			<point x="528" y="294" type="curve" smooth="yes"/>
			<point x="528" y="433"/>
			<point x="429" y="522"/>
			<point x="292" y="522" type="curve" smooth="yes"/>
			<point x="154" y="522"/>
			<point x="56" y="433"/>
			<point x="56" y="294" type="curve" smooth="yes"/>
			<point x="56" y="154"/>
			<point x="154" y="64"/>
		</contour>
		<contour>
			<point x="292" y="98" type="curve" smooth="yes"/>
			<point x="168" y="98"/>
			<point x="86" y="174"/>
			<point x="86" y="294" type="curve" smooth="yes"/>
			<point x="86" y="414"/>
			<point x="168" y="488"/>
			<point x="292" y="488" type="curve" smooth="yes"/>
			<point x="415" y="488"/>
			<point x="498" y="414"/>
			<point x="498" y="294" type="curve" smooth="yes"/>
			<point x="498" y="174"/>
			<point x="415" y="98"/>
		</contour>
	</outline>
</glyph>
<glyph name="pnRosh" format="2">
	<unicode hex="10913"/>
	<advance width="512"/>
	<outline>
		<contour>
			<point x="384" y="-202" type="line"/>
			<point x="412" y="-202" type="line"/>
			<point x="412" y="510" type="line"/>
			<point x="290" y="510" type="line" smooth="yes"/>
			<point x="148" y="510"/>
			<point x="56" y="452"/>
			<point x="56" y="338" type="curve" smooth="yes"/>
			<point x="56" y="214"/>
			<point x="160" y="166"/>
			<point x="294" y="166" type="curve" smooth="yes"/>
			<point x="384" y="166" type="line"/>
		</contour>
		<contour>
			<point x="304" y="196" type="line" smooth="yes"/>
			<point x="168" y="196"/>
			<point x="84" y="237"/>
			<point x="84" y="340" type="curve" smooth="yes"/>
			<point x="84" y="436"/>
			<point x="166" y="480"/>
			<point x="300" y="480" type="curve" smooth="yes"/>
			<point x="384" y="480" type="line"/>
			<point x="384" y="196" type="line"/>
		</contour>
	</outline>
	<guideline x="257" y="328" angle="0" identifier="THAaYjCj1f"/>
</glyph>
<glyph name="cedi.S" format="2">
	<advance width="472"/>
	<outline>
		<contour>
			<point x="286" y="-12" type="curve" smooth="yes"/>
			<point x="359" y="-12"/>
			<point x="408" y="22"/>
			<point x="444" y="82" type="curve"/>
			<point x="422" y="96" type="line"/>
			<point x="389" y="43"/>
			<point x="346" y="20"/>
			<point x="288" y="20" type="curve" smooth="yes"/>
			<point x="164" y="20"/>
			<point x="96" y="122"/>
			<point x="96" y="276" type="curve" smooth="yes"/>
			<point x="96" y="429"/>
			<point x="166" y="526"/>
			<point x="290" y="526" type="curve" smooth="yes"/>
			<point x="346" y="526"/>
			<point x="389" y="507"/>
			<point x="418" y="464" type="curve"/>
			<point x="438" y="480" type="line"/>
			<point x="412" y="527"/>
			<point x="356" y="558"/>
			<point x="290" y="558" type="curve" smooth="yes"/>
			<point x="154" y="558"/>
			<point x="68" y="448"/>
			<point x="68" y="276" type="curve" smooth="yes"/>
			<point x="68" y="102"/>
			<point x="152" y="-12"/>
		</contour>
		<contour>
			<point x="272" y="-110" type="line"/>
			<point x="300" y="-110" type="line"/>
			<point x="300" y="656" type="line"/>
			<point x="272" y="656" type="line"/>
		</contour>
	</outline>
</glyph>
<glyph name="heAyin.1" format="2">
	<advance width="560"/>
	<outline>
		<contour>
			<point x="54" y="0" type="line"/>
			<point x="122" y="0" type="line" smooth="yes"/>
			<point x="358" y="0"/>
			<point x="502" y="244"/>
			<point x="502" y="420" type="curve" smooth="yes"/>
			<point x="502" y="515"/>
			<point x="463" y="546"/>
			<point x="382" y="546" type="curve" smooth="yes"/>
			<point x="312" y="546" type="line"/>
			<point x="312" y="516" type="line"/>
			<point x="378" y="516" type="line" smooth="yes"/>
			<point x="444" y="516"/>
			<point x="474" y="493"/>
			<point x="474" y="420" type="curve" smooth="yes"/>
			<point x="474" y="256"/>
			<point x="342" y="28"/>
			<point x="118" y="28" type="curve" smooth="yes"/>
			<point x="54" y="28" type="line"/>
		</contour>
		<contour>
			<point x="229" y="28" type="curve"/>
			<point x="254" y="38" type="line"/>
			<point x="224" y="180"/>
			<point x="198" y="284"/>
			<point x="166" y="394" type="curve" smooth="yes"/>
			<point x="129" y="520"/>
			<point x="112" y="546"/>
			<point x="44" y="546" type="curve" smooth="yes"/>
			<point x="24" y="546" type="line"/>
			<point x="24" y="516" type="line"/>
			<point x="30" y="516" type="line" smooth="yes"/>
			<point x="97" y="516"/>
			<point x="104" y="500"/>
			<point x="140" y="386" type="curve" smooth="yes"/>
			<point x="175" y="274"/>
			<point x="200" y="168"/>
		</contour>
	</outline>
	<anchor name="aboveHE" x="265" y="590"/>
	<anchor name="belowPrimaryHE" x="320" y="-30"/>
	<anchor name="aboveLeftHE" x="-10" y="590"/>
</glyph>
<glyph name="heAyin.x" format="2">
	<advance width="560"/>
	<outline>
		<contour>
			<point x="54" y="0" type="line"/>
			<point x="122" y="0" type="line" smooth="yes"/>
			<point x="358" y="0"/>
			<point x="502" y="244"/>
			<point x="502" y="420" type="curve" smooth="yes"/>
			<point x="502" y="515"/>
			<point x="463" y="546"/>
			<point x="382" y="546" type="curve" smooth="yes"/>
			<point x="312" y="546" type="line"/>
			<point x="312" y="514" type="line"/>
			<point x="378" y="514" type="line" smooth="yes"/>
			<point x="444" y="514"/>
			<point x="474" y="493"/>
			<point x="474" y="420" type="curve" smooth="yes"/>
			<point x="474" y="256"/>
			<point x="342" y="28"/>
			<point x="118" y="28" type="curve" smooth="yes"/>
			<point x="54" y="28" type="line"/>
		</contour>
		<contour>
			<point x="264" y="32" type="curve"/>
			<point x="286" y="48" type="line"/>
			<point x="196" y="154"/>
			<point x="112" y="284"/>
			<point x="112" y="386" type="curve" smooth="yes"/>
			<point x="112" y="450"/>
			<point x="128" y="484"/>
			<point x="158" y="518" type="curve"/>
			<point x="158" y="546" type="line"/>
			<point x="4" y="546" type="line"/>
			<point x="4" y="516" type="line"/>
			<point x="136" y="516" type="line"/>
			<point x="148" y="536" type="line"/>
			<point x="106" y="498"/>
			<point x="84" y="454"/>
			<point x="84" y="386" type="curve" smooth="yes"/>
			<point x="84" y="270"/>
			<point x="178" y="140"/>
		</contour>
	</outline>
	<anchor name="aboveHE" x="265" y="590"/>
	<anchor name="belowPrimaryHE" x="320" y="-30"/>
	<anchor name="aboveLeftHE" x="-10" y="590"/>
</glyph>
<glyph name="heDagesh.shin" format="2">
	<outline>
		<contour>
			<point x="0" y="320" type="curve" smooth="yes"/>
			<point x="-20" y="320"/>
			<point x="-35" y="305"/>
			<point x="-35" y="285" type="curve" smooth="yes"/>
			<point x="-35" y="265"/>
			<point x="-20" y="250"/>
			<point x="0" y="250" type="curve" smooth="yes"/>
			<point x="20" y="250"/>
			<point x="35" y="265"/>
			<point x="35" y="285" type="curve" smooth="yes"/>
			<point x="35" y="305"/>
			<point x="20" y="320"/>
		</contour>
	</outline>
	<anchor name="_centerHE" x="0" y="285"/>
	<guideline y="285" identifier="0UuHlBomrk"/>
</glyph>
<glyph name="hePatah.short" format="2">
	<outline>
		<contour>
			<point x="76" y="-89" type="line"/>
			<point x="-76" y="-89" type="line"/>
			<point x="-76" y="-128" type="line"/>
			<point x="76" y="-128" type="line"/>
		</contour>
	</outline>
	<anchor name="_belowPrimaryHE" x="0" y="-30"/>
	<anchor name="_belowLeftHE" x="-75" y="-30"/>
	<anchor name="_belowRightHE" x="75" y="-30"/>
	<anchor name="belowPrimaryHE" x="-135" y="-30"/>
	<anchor name="_belowSecondaryHE" x="20" y="-30"/>
</glyph>
<glyph name="heQamats.kaf" format="2">
	<outline>
		<contour>
			<point x="75" y="-89" type="line"/>
			<point x="-76" y="-89" type="line"/>
			<point x="-76" y="-128" type="line"/>
			<point x="-16" y="-128" type="line"/>
			<point x="-24" y="-215" type="line"/>
			<point x="24" y="-215" type="line"/>
			<point x="16" y="-128" type="line"/>
			<point x="75" y="-128" type="line"/>
		</contour>
	</outline>
	<anchor name="_centerSecondaryHE" x="0" y="-30"/>
</glyph>
<glyph name="heQamats.short" format="2">
	<outline>
		<contour>
			<point x="75" y="-89" type="line"/>
			<point x="-76" y="-89" type="line"/>
			<point x="-76" y="-128" type="line"/>
			<point x="-16" y="-128" type="line"/>
			<point x="-24" y="-215" type="line"/>
			<point x="24" y="-215" type="line"/>
			<point x="16" y="-128" type="line"/>
			<point x="75" y="-128" type="line"/>
		</contour>
	</outline>
	<anchor name="_belowPrimaryHE" x="0" y="-30"/>
	<anchor name="_belowLeftHE" x="-75" y="-30"/>
	<anchor name="_belowRightHE" x="75" y="-30"/>
	<anchor name="belowPrimaryHE" x="-135" y="-30"/>
	<anchor name="_belowSecondaryHE" x="0" y="-30"/>
</glyph>
<glyph name="heQamatsQatan.short" format="2">
	<outline>
		<contour>
			<point x="75" y="-89" type="line"/>
			<point x="-77" y="-89" type="line"/>
			<point x="-77" y="-128" type="line"/>
			<point x="-17" y="-128" type="line"/>
			<point x="-21" y="-295" type="line"/>
			<point x="21" y="-295" type="line"/>
			<point x="17" y="-128" type="line"/>
			<point x="75" y="-128" type="line"/>
		</contour>
	</outline>
	<anchor name="_belowPrimaryHE" x="0" y="-30"/>
	<anchor name="_belowLeftHE" x="-75" y="-30"/>
	<anchor name="_belowRightHE" x="75" y="-30"/>
	<anchor name="belowPrimaryHE" x="-135" y="-30"/>
	<anchor name="_belowSecondaryHE" x="0" y="-30"/>
</glyph>
<glyph name="heSheva.kaf" format="2">
	<outline>
		<contour>
			<point x="0" y="-85" type="curve" smooth="yes"/>
			<point x="-20" y="-85"/>
			<point x="-35" y="-100"/>
			<point x="-35" y="-120" type="curve" smooth="yes"/>
			<point x="-35" y="-140"/>
			<point x="-20" y="-155"/>
			<point x="0" y="-155" type="curve" smooth="yes"/>
			<point x="20" y="-155"/>
			<point x="35" y="-140"/>
			<point x="35" y="-120" type="curve" smooth="yes"/>
			<point x="35" y="-100"/>
			<point x="20" y="-85"/>
		</contour>
		<contour>
			<point x="0" y="-206" type="curve" smooth="yes"/>
			<point x="-20" y="-206"/>
			<point x="-35" y="-221"/>
			<point x="-35" y="-241" type="curve" smooth="yes"/>
			<point x="-35" y="-261"/>
			<point x="-20" y="-276"/>
			<point x="0" y="-276" type="curve" smooth="yes"/>
			<point x="20" y="-276"/>
			<point x="35" y="-261"/>
			<point x="35" y="-241" type="curve" smooth="yes"/>
			<point x="35" y="-221"/>
			<point x="20" y="-206"/>
		</contour>
	</outline>
	<anchor name="_centerSecondaryHE" x="0" y="-30"/>
</glyph>
<glyph name="heTet.5" format="2">
	<advance width="584"/>
	<outline>
		<contour>
			<point x="296" y="-12" type="curve" smooth="yes"/>
			<point x="424" y="-12"/>
			<point x="526" y="107"/>
			<point x="526" y="390" type="curve" smooth="yes"/>
			<point x="526" y="507"/>
			<point x="490" y="546"/>
			<point x="416" y="546" type="curve" smooth="yes"/>
			<point x="286" y="546" type="line"/>
			<point x="286" y="516" type="line"/>
			<point x="412" y="516" type="line" smooth="yes"/>
			<point x="472" y="516"/>
			<point x="500" y="488"/>
			<point x="500" y="390" type="curve" smooth="yes"/>
			<point x="500" y="126"/>
			<point x="400" y="20"/>
			<point x="296" y="20" type="curve" smooth="yes"/>
			<point x="198" y="20"/>
			<point x="134" y="93"/>
			<point x="134" y="236" type="curve" smooth="yes"/>
			<point x="134" y="546" type="line"/>
			<point x="106" y="546" type="line"/>
			<point x="106" y="236" type="line" smooth="yes"/>
			<point x="106" y="75"/>
			<point x="184" y="-12"/>
		</contour>
	</outline>
	<anchor name="aboveHE" x="315" y="590"/>
	<anchor name="belowPrimaryHE" x="325" y="-30"/>
	<anchor name="centerHE" x="315" y="300"/>
	<anchor name="aboveLeftHE" x="0" y="590"/>
</glyph>
<glyph name="heTet.a" format="2">
	<advance width="584"/>
	<outline>
		<contour>
			<point x="44" y="516" type="line"/>
			<point x="198" y="516" type="line"/>
			<point x="198" y="546" type="line"/>
			<point x="44" y="546" type="line"/>
		</contour>
		<contour>
			<point x="118" y="406" type="curve" smooth="yes"/>
			<point x="118" y="460"/>
			<point x="120" y="490"/>
			<point x="146" y="518" type="curve"/>
			<point x="146" y="546" type="line"/>
			<point x="44" y="546" type="line"/>
			<point x="44" y="516" type="line"/>
			<point x="124" y="516" type="line"/>
			<point x="136" y="536" type="line"/>
			<point x="101" y="505"/>
			<point x="90" y="465"/>
			<point x="90" y="406" type="curve" smooth="yes"/>
			<point x="90" y="106"/>
			<point x="197" y="-12"/>
			<point x="296" y="-12" type="curve" smooth="yes"/>
			<point x="424" y="-12"/>
			<point x="526" y="107"/>
			<point x="526" y="390" type="curve" smooth="yes"/>
			<point x="526" y="507"/>
			<point x="490" y="546"/>
			<point x="416" y="546" type="curve" smooth="yes"/>
			<point x="326" y="546" type="line"/>
			<point x="326" y="516" type="line"/>
			<point x="412" y="516" type="line" smooth="yes"/>
			<point x="472" y="516"/>
			<point x="500" y="488"/>
			<point x="500" y="390" type="curve" smooth="yes"/>
			<point x="500" y="126"/>
			<point x="400" y="20"/>
			<point x="296" y="20" type="curve" smooth="yes"/>
			<point x="211" y="20"/>
			<point x="118" y="122"/>
		</contour>
	</outline>
	<anchor name="aboveHE" x="315" y="590"/>
	<anchor name="belowPrimaryHE" x="325" y="-30"/>
	<anchor name="centerHE" x="315" y="300"/>
	<anchor name="aboveLeftHE" x="0" y="590"/>
</glyph>
<glyph name="heTsadi.2" format="2">
	<advance width="502"/>
	<outline>
		<contour>
			<point x="54" y="0" type="line"/>
			<point x="452" y="0" type="line"/>
			<point x="458" y="28" type="line"/>
			<point x="54" y="28" type="line"/>
		</contour>
		<contour>
			<point x="272" y="204" type="line"/>
			<point x="374" y="292"/>
			<point x="444" y="387"/>
			<point x="444" y="448" type="curve" smooth="yes"/>
			<point x="444" y="516"/>
			<point x="420" y="546"/>
			<point x="346" y="546" type="curve" smooth="yes"/>
			<point x="284" y="546" type="line"/>
			<point x="284" y="516" type="line"/>
			<point x="332" y="516" type="line" smooth="yes"/>
			<point x="403" y="516"/>
			<point x="416" y="495"/>
			<point x="416" y="450" type="curve" smooth="yes"/>
			<point x="416" y="394"/>
			<point x="358" y="310"/>
			<point x="252" y="222" type="curve"/>
		</contour>
		<contour>
			<point x="436" y="10" type="curve"/>
			<point x="458" y="28" type="line"/>
			<point x="357" y="122"/>
			<point x="278" y="192"/>
			<point x="186" y="324" type="curve" smooth="yes"/>
			<point x="83" y="473"/>
			<point x="82" y="532"/>
			<point x="24" y="532" type="curve" smooth="yes"/>
			<point x="4" y="532" type="line"/>
			<point x="4" y="516" type="line"/>
			<point x="10" y="516" type="line" smooth="yes"/>
			<point x="54" y="516"/>
			<point x="56" y="460"/>
			<point x="162" y="308" type="curve" smooth="yes"/>
			<point x="259" y="168"/>
			<point x="336" y="100"/>
		</contour>
		<contour>
			<point x="4" y="516" type="line"/>
			<point x="164" y="516" type="line"/>
			<point x="164" y="546" type="line"/>
			<point x="4" y="546" type="line"/>
		</contour>
	</outline>
	<anchor name="aboveHE" x="230" y="590"/>
	<anchor name="belowPrimaryHE" x="240" y="-30"/>
	<anchor name="centerHE" x="135" y="170"/>
	<anchor name="aboveLeftHE" x="-5" y="590"/>
</glyph>
<glyph name="newsheqel.S" format="2">
	<advance width="472"/>
	<outline>
		<contour>
			<point x="42" y="0" type="line"/>
			<point x="72" y="0" type="line"/>
			<point x="72" y="518" type="line"/>
			<point x="168" y="518" type="line" smooth="yes"/>
			<point x="238" y="518"/>
			<point x="282" y="489"/>
			<point x="282" y="396" type="curve" smooth="yes"/>
			<point x="282" y="160" type="line"/>
			<point x="312" y="160" type="line"/>
			<point x="312" y="400" type="line" smooth="yes"/>
			<point x="312" y="507"/>
			<point x="259" y="546"/>
			<point x="176" y="546" type="curve" smooth="yes"/>
			<point x="42" y="546" type="line"/>
		</contour>
		<contour>
			<point x="160" y="0" type="line"/>
			<point x="284" y="0" type="line" smooth="yes"/>
			<point x="373" y="0"/>
			<point x="430" y="39"/>
			<point x="430" y="146" type="curve" smooth="yes"/>
			<point x="430" y="546" type="line"/>
			<point x="400" y="546" type="line"/>
			<point x="400" y="150" type="line" smooth="yes"/>
			<point x="400" y="57"/>
			<point x="352" y="28"/>
			<point x="276" y="28" type="curve" smooth="yes"/>
			<point x="190" y="28" type="line"/>
			<point x="190" y="386" type="line"/>
			<point x="160" y="386" type="line"/>
		</contour>
	</outline>
	<guideline x="236" y="272" angle="90" identifier="51LWLohGsJ"/>
</glyph>
<glyph name="newsheqel.he" format="2">
	<advance width="653"/>
	<outline>
		<contour>
			<point x="506" y="0" type="line"/>
			<point x="534" y="0" type="line"/>
			<point x="534" y="350" type="line" smooth="yes"/>
			<point x="534" y="494"/>
			<point x="465" y="546"/>
			<point x="358" y="546" type="curve" smooth="yes"/>
			<point x="34" y="546" type="line"/>
			<point x="34" y="516" type="line"/>
			<point x="352" y="516" type="line" smooth="yes"/>
			<point x="446" y="516"/>
			<point x="506" y="475"/>
			<point x="506" y="344" type="curve" smooth="yes"/>
		</contour>
		<contour>
			<point x="114" y="0" type="line"/>
			<point x="142" y="0" type="line"/>
			<point x="142" y="516" type="line"/>
			<point x="120" y="516" type="line"/>
			<point x="114" y="490"/>
			<point x="114" y="462"/>
			<point x="114" y="426" type="curve" smooth="yes"/>
		</contour>
	</outline>
</glyph>
<glyph name="newsheqel.pnum" format="2">
	<advance width="588"/>
	<outline>
		<contour>
			<point x="100" y="0" type="line"/>
			<point x="130" y="0" type="line"/>
			<point x="130" y="612" type="line"/>
			<point x="226" y="612" type="line" smooth="yes"/>
			<point x="296" y="612"/>
			<point x="340" y="583"/>
			<point x="340" y="490" type="curve" smooth="yes"/>
			<point x="340" y="160" type="line"/>
			<point x="370" y="160" type="line"/>
			<point x="370" y="494" type="line" smooth="yes"/>
			<point x="370" y="601"/>
			<point x="317" y="640"/>
			<point x="234" y="640" type="curve" smooth="yes"/>
			<point x="100" y="640" type="line"/>
		</contour>
		<contour>
			<point x="218" y="0" type="line"/>
			<point x="342" y="0" type="line" smooth="yes"/>
			<point x="431" y="0"/>
			<point x="488" y="39"/>
			<point x="488" y="146" type="curve" smooth="yes"/>
			<point x="488" y="640" type="line"/>
			<point x="458" y="640" type="line"/>
			<point x="458" y="150" type="line" smooth="yes"/>
			<point x="458" y="57"/>
			<point x="410" y="28"/>
			<point x="334" y="28" type="curve" smooth="yes"/>
			<point x="248" y="28" type="line"/>
			<point x="248" y="480" type="line"/>
			<point x="218" y="480" type="line"/>
		</contour>
	</outline>
	<guideline x="236" y="272" angle="90" identifier="51LWLohGsJ"/>
</glyph>
<glyph name="nine.Dnom" format="2">
	<advance width="360"/>
	<outline>
		<contour>
			<point x="152" y="-12" type="curve" smooth="yes"/>
			<point x="232" y="-12"/>
			<point x="302" y="40"/>
			<point x="302" y="192" type="curve" smooth="yes"/>
			<point x="302" y="302"/>
			<point x="246" y="362"/>
			<point x="164" y="362" type="curve" smooth="yes"/>
			<point x="94" y="362"/>
			<point x="44" y="311"/>
			<point x="44" y="242" type="curve" smooth="yes"/>
			<point x="44" y="172"/>
			<point x="86" y="128"/>
			<point x="166" y="128" type="curve" smooth="yes"/>
			<point x="210" y="128"/>
			<point x="246" y="146"/>
			<point x="280" y="180" type="curve"/>
			<point x="280" y="217" type="line"/>
			<point x="238" y="170"/>
			<point x="208" y="156"/>
			<point x="168" y="156" type="curve" smooth="yes"/>
			<point x="106" y="156"/>
			<point x="72" y="190"/>
			<point x="72" y="242" type="curve" smooth="yes"/>
			<point x="72" y="291"/>
			<point x="108" y="332"/>
			<point x="162" y="332" type="curve" smooth="yes"/>
			<point x="234" y="332"/>
			<point x="276" y="278"/>
			<point x="276" y="190" type="curve" smooth="yes"/>
			<point x="276" y="56"/>
			<point x="216" y="18"/>
			<point x="154" y="18" type="curve" smooth="yes"/>
			<point x="118" y="18"/>
			<point x="89" y="23"/>
			<point x="68" y="36" type="curve"/>
			<point x="54" y="12" type="line"/>
			<point x="79" y="-3"/>
			<point x="106" y="-12"/>
		</contour>
	</outline>
</glyph>
<glyph name="one.P" format="2">
	<advance width="336"/>
	<outline>
		<contour>
			<point x="176" y="0" type="line"/>
			<point x="204" y="0" type="line"/>
			<point x="204" y="546" type="line"/>
			<point x="180" y="546" type="line"/>
			<point x="152" y="530"/>
			<point x="112" y="516"/>
			<point x="62" y="508" type="curve"/>
			<point x="62" y="486" type="line"/>
			<point x="176" y="486" type="line"/>
		</contour>
	</outline>
</glyph>
<glyph name="pnAin" format="2">
	<advance width="568"/>
	<outline>
		<contour>
			<point x="284" y="-12" type="curve" smooth="yes"/>
			<point x="416" y="-12"/>
			<point x="512" y="100"/>
			<point x="512" y="274" type="curve" smooth="yes"/>
			<point x="512" y="448"/>
			<point x="416" y="558"/>
			<point x="284" y="558" type="curve" smooth="yes"/>
			<point x="151" y="558"/>
			<point x="56" y="448"/>
			<point x="56" y="274" type="curve" smooth="yes"/>
			<point x="56" y="100"/>
			<point x="151" y="-12"/>
		</contour>
		<contour>
			<point x="284" y="22" type="curve" smooth="yes"/>
			<point x="165" y="22"/>
			<point x="86" y="119"/>
			<point x="86" y="274" type="curve" smooth="yes"/>
			<point x="86" y="429"/>
			<point x="165" y="524"/>
			<point x="284" y="524" type="curve" smooth="yes"/>
			<point x="402" y="524"/>
			<point x="482" y="429"/>
			<point x="482" y="274" type="curve" smooth="yes"/>
			<point x="482" y="119"/>
			<point x="402" y="22"/>
		</contour>
	</outline>
</glyph>
<glyph name="pnAlf" format="2">
	<advance width="444"/>
	<outline>
		<contour>
			<point x="10" y="510" type="line"/>
			<point x="42" y="510" type="line"/>
			<point x="158" y="206" type="line" smooth="yes"/>
			<point x="181" y="144"/>
			<point x="199" y="96"/>
			<point x="220" y="35" type="curve"/>
			<point x="224" y="35" type="line"/>
			<point x="245" y="95"/>
			<point x="263" y="143"/>
			<point x="286" y="206" type="curve" smooth="yes"/>
			<point x="400" y="510" type="line"/>
			<point x="434" y="510" type="line"/>
			<point x="236" y="0" type="line"/>
			<point x="207" y="0" type="line"/>
		</contour>
		<contour>
			<point x="90" y="364" type="line"/>
			<point x="352" y="364" type="line"/>
			<point x="352" y="336" type="line"/>
			<point x="90" y="336" type="line"/>
		</contour>
	</outline>
</glyph>
<glyph name="pnBet" format="2">
	<advance width="500"/>
	<outline>
		<contour>
			<point x="400" y="510" type="line"/>
			<point x="238" y="510" type="line" smooth="yes"/>
			<point x="112" y="510"/>
			<point x="44" y="460"/>
			<point x="44" y="360" type="curve" smooth="yes"/>
			<point x="44" y="261"/>
			<point x="122" y="222"/>
			<point x="242" y="222" type="curve" smooth="yes"/>
			<point x="372" y="222" type="line"/>
			<point x="372" y="30" type="line"/>
			<point x="82" y="30" type="line"/>
			<point x="82" y="0" type="line"/>
			<point x="400" y="0" type="line"/>
		</contour>
		<contour>
			<point x="372" y="480" type="line"/>
			<point x="372" y="252" type="line"/>
			<point x="252" y="252" type="line" smooth="yes"/>
			<point x="133" y="252"/>
			<point x="72" y="284"/>
			<point x="72" y="362" type="curve" smooth="yes"/>
			<point x="72" y="443"/>
			<point x="131" y="480"/>
			<point x="248" y="480" type="curve" smooth="yes"/>
		</contour>
	</outline>
</glyph>
<glyph name="pnHe" format="2">
	<advance width="456"/>
	<outline>
		<contour>
			<point x="46" y="0" type="line"/>
			<point x="356" y="0" type="line"/>
			<point x="356" y="510" type="line"/>
			<point x="56" y="510" type="line"/>
			<point x="56" y="480" type="line"/>
			<point x="328" y="480" type="line"/>
			<point x="328" y="288" type="line"/>
			<point x="98" y="288" type="line"/>
			<point x="98" y="258" type="line"/>
			<point x="328" y="258" type="line"/>
			<point x="328" y="30" type="line"/>
			<point x="46" y="30" type="line"/>
		</contour>
		<contour>
			<point x="356" y="-120" type="line"/>
			<point x="356" y="30" type="line"/>
			<point x="328" y="30" type="line"/>
			<point x="328" y="-120" type="line"/>
		</contour>
	</outline>
</glyph>
<glyph name="pnKaf" format="2">
	<advance width="556"/>
	<outline>
		<contour>
			<point x="394" y="-120" type="line"/>
			<point x="394" y="510" type="line"/>
			<point x="366" y="510" type="line"/>
			<point x="366" y="386" type="line"/>
			<point x="354" y="386" type="line"/>
			<point x="80" y="200" type="line"/>
			<point x="118" y="200" type="line"/>
			<point x="370" y="358" type="line"/>
			<point x="366" y="358" type="line"/>
			<point x="366" y="-120" type="line"/>
		</contour>
		<contour>
			<point x="348" y="370" type="line"/>
			<point x="378" y="376" type="line"/>
			<point x="130" y="510" type="line"/>
			<point x="92" y="510" type="line"/>
		</contour>
	</outline>
</glyph>
<glyph name="pnNun" format="2">
	<advance width="548"/>
	<outline>
		<contour>
			<point x="100" y="140" type="line"/>
			<point x="138" y="140" type="line"/>
			<point x="356" y="396" type="line"/>
			<point x="418" y="478" type="line"/>
			<point x="422" y="478" type="line"/>
			<point x="420" y="429"/>
			<point x="418" y="384"/>
			<point x="418" y="336" type="curve" smooth="yes"/>
			<point x="418" y="-120" type="line"/>
			<point x="448" y="-120" type="line"/>
			<point x="448" y="510" type="line"/>
			<point x="410" y="510" type="line"/>
			<point x="192" y="252" type="line"/>
			<point x="130" y="172" type="line"/>
			<point x="126" y="172" type="line"/>
			<point x="128" y="221"/>
			<point x="130" y="269"/>
			<point x="130" y="318" type="curve" smooth="yes"/>
			<point x="130" y="510" type="line"/>
			<point x="100" y="510" type="line"/>
		</contour>
	</outline>
</glyph>
<glyph name="pnSemk" format="2">
	<advance width="448"/>
	<outline>
		<contour>
			<point x="42" y="160" type="line"/>
			<point x="406" y="160" type="line"/>
			<point x="406" y="190" type="line"/>
			<point x="42" y="190" type="line"/>
		</contour>
		<contour>
			<point x="88" y="324" type="line"/>
			<point x="360" y="324" type="line"/>
			<point x="360" y="354" type="line"/>
			<point x="88" y="354" type="line"/>
		</contour>
		<contour>
			<point x="210" y="-120" type="line"/>
			<point x="238" y="-120" type="line"/>
			<point x="238" y="480" type="line"/>
			<point x="418" y="480" type="line"/>
			<point x="418" y="510" type="line"/>
			<point x="30" y="510" type="line"/>
			<point x="30" y="480" type="line"/>
			<point x="210" y="480" type="line"/>
		</contour>
	</outline>
</glyph>
<glyph name="pnYod" format="2">
	<advance width="472"/>
	<outline>
		<contour>
			<point x="94" y="266" type="line"/>
			<point x="246" y="266" type="line"/>
			<point x="246" y="298" type="line"/>
			<point x="94" y="298" type="line"/>
		</contour>
		<component base="pnZai"/>
	</outline>
	<guideline x="81" y="390" angle="90" identifier="OeErDl4cQZ"/>
</glyph>
<glyph name="pnZai" format="2">
	<advance width="472"/>
	<outline>
		<contour>
			<point x="52" y="0" type="line"/>
			<point x="420" y="0" type="line"/>
			<point x="420" y="32" type="line"/>
			<point x="96" y="32" type="line"/>
			<point x="416" y="492" type="line"/>
			<point x="416" y="510" type="line"/>
			<point x="80" y="510" type="line"/>
			<point x="80" y="478" type="line"/>
			<point x="372" y="478" type="line"/>
			<point x="52" y="18" type="line"/>
		</contour>
	</outline>
</glyph>
<glyph name="six.Dnom" format="2">
	<advance width="360"/>
	<outline>
		<contour>
			<point x="192" y="-12" type="curve" smooth="yes"/>
			<point x="262" y="-12"/>
			<point x="312" y="39"/>
			<point x="312" y="108" type="curve" smooth="yes"/>
			<point x="312" y="178"/>
			<point x="270" y="222"/>
			<point x="190" y="222" type="curve" smooth="yes"/>
			<point x="146" y="222"/>
			<point x="110" y="204"/>
			<point x="76" y="170" type="curve"/>
			<point x="76" y="133" type="line"/>
			<point x="118" y="180"/>
			<point x="148" y="194"/>
			<point x="188" y="194" type="curve" smooth="yes"/>
			<point x="250" y="194"/>
			<point x="284" y="160"/>
			<point x="284" y="108" type="curve" smooth="yes"/>
			<point x="284" y="59"/>
			<point x="248" y="18"/>
			<point x="194" y="18" type="curve" smooth="yes"/>
			<point x="122" y="18"/>
			<point x="80" y="72"/>
			<point x="80" y="160" type="curve" smooth="yes"/>
			<point x="80" y="294"/>
			<point x="140" y="332"/>
			<point x="202" y="332" type="curve" smooth="yes"/>
			<point x="238" y="332"/>
			<point x="267" y="327"/>
			<point x="288" y="314" type="curve"/>
			<point x="302" y="338" type="line"/>
			<point x="277" y="353"/>
			<point x="250" y="362"/>
			<point x="204" y="362" type="curve" smooth="yes"/>
			<point x="124" y="362"/>
			<point x="54" y="310"/>
			<point x="54" y="158" type="curve" smooth="yes"/>
			<point x="54" y="48"/>
			<point x="110" y="-12"/>
		</contour>
	</outline>
</glyph>
<glyph name="slash.lat" format="2">
	<advance width="360"/>
	<outline>
		<contour>
			<point x="8" y="-160" type="line"/>
			<point x="38" y="-160" type="line"/>
			<point x="358" y="710" type="line"/>
			<point x="328" y="710" type="line"/>
		</contour>
	</outline>
</glyph>
<glyph name="three.Dnom" format="2">
	<advance width="360"/>
	<outline>
		<contour>
			<point x="178" y="-12" type="curve" smooth="yes"/>
			<point x="248" y="-12"/>
			<point x="302" y="27"/>
			<point x="302" y="94" type="curve" smooth="yes"/>
			<point x="302" y="146"/>
			<point x="260" y="172"/>
			<point x="212" y="180" type="curve"/>
			<point x="254" y="195"/>
			<point x="286" y="226"/>
			<point x="286" y="272" type="curve" smooth="yes"/>
			<point x="286" y="329"/>
			<point x="236" y="362"/>
			<point x="174" y="362" type="curve" smooth="yes"/>
			<point x="126" y="362"/>
			<point x="86" y="346"/>
			<point x="56" y="316" type="curve"/>
			<point x="76" y="296" type="line"/>
			<point x="104" y="322"/>
			<point x="140" y="332"/>
			<point x="172" y="332" type="curve" smooth="yes"/>
			<point x="226" y="332"/>
			<point x="258" y="305"/>
			<point x="258" y="270" type="curve" smooth="yes"/>
			<point x="258" y="228"/>
			<point x="214" y="190"/>
			<point x="132" y="190" type="curve"/>
			<point x="132" y="166" type="line"/>
			<point x="220" y="166"/>
			<point x="272" y="142"/>
			<point x="272" y="94" type="curve" smooth="yes"/>
			<point x="272" y="47"/>
			<point x="232" y="18"/>
			<point x="180" y="18" type="curve" smooth="yes"/>
			<point x="128" y="18"/>
			<point x="94" y="34"/>
			<point x="64" y="64" type="curve"/>
			<point x="44" y="44" type="line"/>
			<point x="76" y="6"/>
			<point x="118" y="-12"/>
		</contour>
	</outline>
</glyph>
<glyph name="ugword" format="2">
	<advance width="244"/>
	<outline>
		<contour>
			<point x="124" y="198" type="curve"/>
			<point x="144" y="198" type="line"/>
			<point x="144" y="270"/>
			<point x="156" y="321"/>
			<point x="172" y="338" type="curve"/>
			<point x="98" y="338" type="line"/>
			<point x="115" y="321"/>
			<point x="124" y="270"/>
		</contour>
	</outline>
</glyph>
<glyph name="zero.P" format="2">
	<advance width="504"/>
	<outline>
		<contour>
			<point x="252" y="-12" type="curve" smooth="yes"/>
			<point x="378" y="-12"/>
			<point x="444" y="94"/>
			<point x="444" y="276" type="curve" smooth="yes"/>
			<point x="444" y="458"/>
			<point x="378" y="558"/>
			<point x="252" y="558" type="curve" smooth="yes"/>
			<point x="126" y="558"/>
			<point x="60" y="458"/>
			<point x="60" y="276" type="curve" smooth="yes"/>
			<point x="60" y="94"/>
			<point x="126" y="-12"/>
		</contour>
		<contour>
			<point x="252" y="20" type="curve" smooth="yes"/>
			<point x="148" y="20"/>
			<point x="86" y="114"/>
			<point x="86" y="276" type="curve" smooth="yes"/>
			<point x="86" y="440"/>
			<point x="148" y="526"/>
			<point x="252" y="526" type="curve" smooth="yes"/>
			<point x="356" y="526"/>
			<point x="418" y="440"/>
			<point x="418" y="276" type="curve" smooth="yes"/>
			<point x="418" y="114"/>
			<point x="356" y="20"/>
		</contour>
	</outline>
</glyph>
